<?xml version="1.0" encoding="UTF-8" standalone="no"?>
<svg
   xmlns:dc="http://purl.org/dc/elements/1.1/"
   xmlns:cc="http://creativecommons.org/ns#"
   xmlns:rdf="http://www.w3.org/1999/02/22-rdf-syntax-ns#"
   xmlns:svg="http://www.w3.org/2000/svg"
   xmlns="http://www.w3.org/2000/svg"
   xmlns:sodipodi="http://sodipodi.sourceforge.net/DTD/sodipodi-0.dtd"
   xmlns:inkscape="http://www.inkscape.org/namespaces/inkscape"
   version="1.1"
   width="55"
   height="55"
   viewBox="-27.5 -27.5 55 55"
   id="svg3000"
   inkscape:version="0.48.2 r9819"
   sodipodi:docname="WeatherSymbol_WMO_PresentWeatherAutomaticStation_wawa_65.svg">
  <metadata
     id="metadata3013">
    <rdf:RDF>
      <cc:Work
         rdf:about="">
        <dc:format>image/svg+xml</dc:format>
        <dc:type
           rdf:resource="http://purl.org/dc/dcmitype/StillImage" />
        <dc:title></dc:title>
      </cc:Work>
    </rdf:RDF>
  </metadata>
  <defs
     id="defs3011" />
  <sodipodi:namedview
     pagecolor="#ffffff"
     bordercolor="#666666"
     borderopacity="1"
     objecttolerance="10"
     gridtolerance="10"
     guidetolerance="10"
     inkscape:pageopacity="0"
     inkscape:pageshadow="2"
     inkscape:window-width="801"
     inkscape:window-height="697"
     id="namedview3009"
     showgrid="false"
     inkscape:zoom="7.6909091"
     inkscape:cx="27.5"
     inkscape:cy="27.5"
     inkscape:window-x="122"
     inkscape:window-y="13"
     inkscape:window-maximized="0"
     inkscape:current-layer="svg3000" />
  <desc
     id="en">
	Codes 60-69 General Group: Rain.
	Code: 67
	Description: Rain, freezing, moderate or heavy
</desc>
  <g
     id="g3044"
     transform="translate(0.13002364,5.2009456)">
    <circle
       r="4.5"
       cx="10"
       id="circle3004"
       d="M 14.5,0 C 14.5,2.4852814 12.485281,4.5 10,4.5 7.5147186,4.5 5.5,2.4852814 5.5,0 c 0,-2.4852814 2.0147186,-4.5 4.5,-4.5 2.485281,0 4.5,2.0147186 4.5,4.5 z"
       cy="0"
       sodipodi:cx="10"
       sodipodi:cy="0"
       sodipodi:rx="4.5"
       sodipodi:ry="4.5"
       style="fill:#000000" />
    <path
       id="arc"
       d="M 0,0 A 10,10 0 0 0 20,0 V -2"
       inkscape:connector-curvature="0"
       style="fill:none;stroke:#000000;stroke-width:3;stroke-linecap:round" />
    <g
       id="g3015">
      <g
         transform="scale(-1,-1)"
         id="use3007">
        <circle
           r="4.5"
           cx="10"
           id="circle3020"
           d="M 14.5,0 C 14.5,2.4852814 12.485281,4.5 10,4.5 7.5147186,4.5 5.5,2.4852814 5.5,0 c 0,-2.4852814 2.0147186,-4.5 4.5,-4.5 2.485281,0 4.5,2.0147186 4.5,4.5 z"
           cy="0"
           sodipodi:cx="10"
           sodipodi:cy="0"
           sodipodi:rx="4.5"
           sodipodi:ry="4.5"
           style="fill:#000000" />
        <path
           id="path3022"
           d="M 0,0 A 10,10 0 0 0 20,0 V -2"
           inkscape:connector-curvature="0"
           style="fill:none;stroke:#000000;stroke-width:3;stroke-linecap:round" />
      </g>
    </g>
    <circle
       r="4.5"
       cx="10"
       id="circle3004-1"
       d="M 14.5,0 C 14.5,2.4852814 12.485281,4.5 10,4.5 7.5147186,4.5 5.5,2.4852814 5.5,0 c 0,-2.4852814 2.0147186,-4.5 4.5,-4.5 2.485281,0 4.5,2.0147186 4.5,4.5 z"
       cy="0"
       sodipodi:cx="10"
       sodipodi:cy="0"
       sodipodi:rx="4.5"
       sodipodi:ry="4.5"
       style="fill:#000000"
       transform="translate(-9.1548464,-16.708037)" />
  </g>
</svg>
