<?xml version="1.0" encoding="UTF-8" standalone="no"?>
<svg
   xmlns:osb="http://www.openswatchbook.org/uri/2009/osb"
   xmlns:dc="http://purl.org/dc/elements/1.1/"
   xmlns:cc="http://creativecommons.org/ns#"
   xmlns:rdf="http://www.w3.org/1999/02/22-rdf-syntax-ns#"
   xmlns:svg="http://www.w3.org/2000/svg"
   xmlns="http://www.w3.org/2000/svg"
   xmlns:sodipodi="http://sodipodi.sourceforge.net/DTD/sodipodi-0.dtd"
   xmlns:inkscape="http://www.inkscape.org/namespaces/inkscape"
   version="1.1"
   width="55"
   height="55"
   viewBox="-27.5 -27.5 55 55"
   id="svg2997"
   inkscape:version="0.48.2 r9819"
   sodipodi:docname="WeatherSymbol_WMO_PresentWeatheAutomaticStation_wawa_05.svg">
  <metadata
     id="metadata3007">
    <rdf:RDF>
      <cc:Work
         rdf:about="">
        <dc:format>image/svg+xml</dc:format>
        <dc:type
           rdf:resource="http://purl.org/dc/dcmitype/StillImage" />
        <dc:title></dc:title>
      </cc:Work>
    </rdf:RDF>
  </metadata>
  <defs
     id="defs3005">
    <linearGradient
       id="linearGradient3831"
       osb:paint="solid">
      <stop
         style="stop-color:#000000;stop-opacity:1;"
         offset="0"
         id="stop3833" />
    </linearGradient>
  </defs>
  <sodipodi:namedview
     pagecolor="#ffffff"
     bordercolor="#666666"
     borderopacity="1"
     objecttolerance="10"
     gridtolerance="10"
     guidetolerance="10"
     inkscape:pageopacity="0"
     inkscape:pageshadow="2"
     inkscape:window-width="915"
     inkscape:window-height="719"
     id="namedview3003"
     showgrid="false"
     inkscape:zoom="5.9272727"
     inkscape:cx="24.547546"
     inkscape:cy="27.5"
     inkscape:window-x="48"
     inkscape:window-y="-4"
     inkscape:window-maximized="0"
     inkscape:current-layer="ww_05" />
  <desc
     id="en">
	Codes 00-09 General Group: No precipitation, fog, duststorm, sandstorm, drifting or blowing snow at the station at the time of observation or, except for 09 during the preceeding hour.
	Code: 05
	Description: Haze
</desc>
  <g
     id="ww_05"
     fill="none"
     stroke-width="3"
     stroke="#000000">
    <path
       d="M -0.02163681,0 A 7.8815665,12 0 1 0 0.01977019,-23.999917 7.8815665,12 0 1 0 -0.02163681,0 7.8815665,12 0 0 1 -0.06304382,23.999917 7.8815665,12 0 0 1 -0.02163681,0 z"
       id="path3001"
       inkscape:connector-curvature="0"
       style="stroke-width:2.43129086" />
    <path
       style="fill:none;stroke-width:0.33742332;stroke-miterlimit:4;stroke-dasharray:none"
       d="m 25.806209,49.767813 c -1.665327,-0.775402 -2.845676,-2.18181 -3.802975,-4.531317 -0.739752,-1.815578 -1.017202,-3.327245 -1.028943,-5.606128 -0.02504,-4.860302 1.786113,-8.854279 4.686752,-10.335269 4.653971,-2.376196 9.397917,5.057542 8.116826,12.719024 -0.51459,3.07747 -1.550124,5.251676 -3.234459,6.791063 -1.508122,1.378337 -3.134563,1.70884 -4.737201,0.962627 l 0,0 z"
       id="path3009"
       inkscape:connector-curvature="0"
       transform="translate(-27.5,-27.5)" />
    <path
       style="fill:none;stroke-width:0.33742332;stroke-miterlimit:4;stroke-dasharray:none"
       d="m 25.793337,49.414839 c -1.738979,-0.880214 -3.184123,-2.940743 -4.025678,-5.739927 -0.402396,-1.338455 -0.45565,-1.797328 -0.459594,-3.960188 -0.0036,-1.9604 0.06936,-2.747924 0.367171,-3.964724 1.213338,-4.95745 4.530535,-7.680206 7.505712,-6.16069 1.642947,0.839104 3.349931,3.350195 4.073215,5.991978 0.429604,1.569123 0.522259,4.956293 0.182633,6.676496 -0.627645,3.179017 -1.907755,5.539134 -3.685026,6.794025 -0.837499,0.591339 -1.11517,0.693776 -2.02454,0.74689 -0.8805,0.05143 -1.198713,-0.01174 -1.933893,-0.38386 l 0,0 z"
       id="path3011"
       inkscape:connector-curvature="0"
       transform="translate(-27.5,-27.5)" />
    <path
       style="fill:none;stroke-width:0.33742332;stroke-miterlimit:4;stroke-dasharray:none"
       d="m 25.953478,49.165862 c -1.498372,-0.680101 -2.96228,-2.751301 -3.937373,-5.57077 -0.334126,-0.96612 -0.37896,-1.427909 -0.376737,-3.880368 0.0021,-2.283045 0.06502,-3.011332 0.35001,-4.04908 0.558703,-2.034459 1.342681,-3.50331 2.484295,-4.654541 1.59053,-1.603931 3.274162,-1.981607 4.754699,-1.066585 1.600835,0.989371 3.369333,3.870133 3.871889,6.307041 0.389076,1.886645 0.252329,5.570283 -0.272612,7.343533 -0.745311,2.517661 -1.879894,4.279152 -3.427528,5.321388 -0.731108,0.492358 -1.011793,0.582941 -1.796642,0.579815 -0.552431,-0.0022 -1.222487,-0.136388 -1.650001,-0.330433 l 0,0 z"
       id="path3013"
       inkscape:connector-curvature="0"
       transform="translate(-27.5,-27.5)" />
    <path
       style="fill:none;stroke-width:0.33742332;stroke-miterlimit:4;stroke-dasharray:none"
       d="m 25.991936,48.845657 c -0.986268,-0.448004 -2.01888,-1.720147 -2.960962,-3.647804 -1.056536,-2.16185 -1.226241,-3.099191 -1.114895,-6.157976 0.129887,-3.568158 0.91913,-5.83222 2.683367,-7.69764 2.565835,-2.712993 5.112837,-1.891221 7.237862,2.335244 1.000913,1.990716 1.207465,3.122969 1.116739,6.121599 -0.04917,1.62524 -0.177281,2.892848 -0.35806,3.542945 -0.651898,2.344273 -2.041185,4.492789 -3.501079,5.41438 -0.797214,0.50326 -2.108512,0.540977 -3.102972,0.08925 l 0,0 z"
       id="path3015"
       inkscape:connector-curvature="0"
       transform="translate(-27.5,-27.5)" />
    <path
       style="fill:none;stroke-width:0.33742332;stroke-miterlimit:4;stroke-dasharray:none"
       d="m 26.16191,48.589146 c -1.173893,-0.511424 -2.840303,-2.968301 -3.606436,-5.317163 -0.272099,-0.834218 -0.35302,-1.512012 -0.35302,-2.95688 0,-4.474545 0.791845,-6.980736 2.833507,-8.968052 2.322747,-2.260919 4.551379,-1.408779 6.521132,2.49342 1.011022,2.002896 1.163448,2.879157 1.065848,6.12732 -0.07076,2.354977 -0.137251,2.857102 -0.521128,3.935516 -0.7204,2.023802 -1.975525,3.862933 -3.08136,4.515108 -0.78541,0.463203 -2.018211,0.536834 -2.858543,0.170731 l 0,0 z"
       id="path3017"
       inkscape:connector-curvature="0"
       transform="translate(-27.5,-27.5)" />
    <path
       style="fill:none;stroke-width:0.33742332;stroke-miterlimit:4;stroke-dasharray:none"
       d="m 26.012271,48.160952 c -1.035546,-0.682652 -2.481386,-2.936594 -3.130227,-4.879756 -0.297893,-0.892135 -0.357415,-1.467245 -0.35296,-3.410367 0.0033,-1.4559 0.106752,-2.832603 0.274242,-3.650828 0.794809,-3.882824 3.675537,-6.635213 5.79661,-5.538364 1.192906,0.616877 2.876778,3.144525 3.475374,5.216861 0.236231,0.817829 0.273866,1.514124 0.214296,3.964724 -0.0697,2.867249 -0.09137,3.020531 -0.611225,4.322361 -0.657347,1.64615 -1.59031,3.022567 -2.544422,3.753834 -0.614021,0.47061 -0.851023,0.548156 -1.672381,0.547201 -0.659765,-8.43e-4 -1.109881,-0.10191 -1.449307,-0.325666 l 0,0 z"
       id="path3019"
       inkscape:connector-curvature="0"
       transform="translate(-27.5,-27.5)" />
    <path
       style="fill:none;stroke-width:0.33742332;stroke-miterlimit:4;stroke-dasharray:none"
       d="m 25.844797,47.634748 c -0.677845,-0.595156 -1.762358,-2.251585 -2.394672,-3.657497 -0.98135,-2.181975 -0.814616,-7.173959 0.328688,-9.840817 0.373046,-0.870162 1.505232,-2.320148 2.194646,-2.810673 0.753587,-0.536185 1.900363,-0.682188 2.583506,-0.328921 0.90927,0.470201 2.477034,2.79312 3.092556,4.582163 0.28626,0.832029 0.337576,1.413033 0.334085,3.782532 -0.0023,1.539729 -0.07984,3.127802 -0.172374,3.529051 -0.327105,1.418345 -1.349211,3.269479 -2.367496,4.287764 -0.969093,0.969092 -0.974962,0.971957 -1.991853,0.971957 -0.896786,0 -1.090776,-0.06223 -1.607086,-0.515559 l 0,0 z"
       id="path3021"
       inkscape:connector-curvature="0"
       transform="translate(-27.5,-27.5)" />
    <path
       style="fill:none;stroke-width:0.33742332;stroke-miterlimit:4;stroke-dasharray:none"
       d="m 25.923245,47.264571 c -2.07771,-2.121333 -3.03236,-4.935584 -2.818595,-8.30905 0.197797,-3.121464 0.817028,-4.999402 2.162927,-6.5595 0.787258,-0.912548 1.497748,-1.285592 2.448512,-1.285592 0.546423,0 0.749525,0.124458 1.502466,0.920681 0.518436,0.548238 1.169331,1.520785 1.609015,2.404141 l 0.738381,1.483461 0.05231,3.25859 c 0.04722,2.941485 0.01792,3.361925 -0.30106,4.320463 -0.437425,1.314463 -1.148259,2.468193 -2.164877,3.513738 -0.748848,0.770155 -0.816475,0.80138 -1.735625,0.80138 -0.856396,0 -1.012576,-0.05734 -1.493453,-0.548312 z"
       id="path3023"
       inkscape:connector-curvature="0"
       transform="translate(-27.5,-27.5)" />
    <path
       style="fill:none;stroke-width:0.33742332;stroke-miterlimit:4;stroke-dasharray:none"
       d="M 25.826807,46.758436 C 24.994278,45.795208 24.309746,44.583618 23.848918,43.257669 23.516196,42.300317 23.4692,41.83964 23.478884,39.630368 c 0.01602,-3.654653 0.666292,-5.685668 2.349197,-7.337314 0.619086,-0.607587 0.869937,-0.7365 1.562679,-0.803064 0.82209,-0.07899 0.828374,-0.07574 1.662642,0.860287 0.460589,0.516769 1.157395,1.540082 1.548458,2.274028 l 0.711023,1.334448 -0.004,3.438568 c -0.0038,3.23833 -0.02758,3.495896 -0.408776,4.423006 -0.458941,1.116184 -1.016039,1.96951 -1.937268,2.967381 -0.596735,0.64638 -0.691517,0.687752 -1.575613,0.687752 -0.896999,0 -0.969463,-0.0333 -1.560415,-0.717024 z"
       id="path3025"
       inkscape:connector-curvature="0"
       transform="translate(-27.5,-27.5)" />
    <path
       style="fill:none;stroke-width:0.33742332;stroke-miterlimit:4;stroke-dasharray:none"
       d="m 26.017574,46.533116 c -0.756412,-0.825668 -1.722258,-2.659255 -2.036722,-3.866565 -0.437827,-1.680929 -0.256373,-5.677143 0.337038,-7.422686 0.664482,-1.954604 2.105,-3.458589 3.31264,-3.458589 0.563491,0 0.699619,0.09662 1.366755,0.970092 0.407513,0.533551 1.031911,1.463574 1.387551,2.066718 l 0.646617,1.096626 -0.0341,3.542944 -0.0341,3.542945 -0.576516,1.180982 c -0.317083,0.64954 -0.927584,1.579563 -1.35667,2.066718 -0.744452,0.845201 -0.818554,0.885736 -1.619231,0.885736 -0.747243,0 -0.89973,-0.06621 -1.393257,-0.604921 z"
       id="path3027"
       inkscape:connector-curvature="0"
       transform="translate(-27.5,-27.5)" />
    <path
       style="fill:none;stroke-width:0.33742332;stroke-miterlimit:4;stroke-dasharray:none"
       d="m 26.103644,46.182042 c -1.432823,-1.738263 -2.048054,-3.661725 -2.039476,-6.37623 0.01088,-3.444 0.600392,-5.43736 2.03115,-6.868118 0.994801,-0.994801 1.684671,-1.096355 2.384649,-0.351038 0.604904,0.644085 2.143536,3.046696 2.267561,3.540851 0.05626,0.224139 0.06757,1.863179 0.02514,3.64231 -0.08385,3.515826 -0.127217,3.694186 -1.319843,5.428036 -0.922561,1.341227 -1.262675,1.60276 -2.084325,1.60276 -0.664172,0 -0.8163,-0.0744 -1.264854,-0.618571 z"
       id="path3029"
       inkscape:connector-curvature="0"
       transform="translate(-27.5,-27.5)" />
    <path
       style="fill:none;stroke-width:0.33742332;stroke-miterlimit:4;stroke-dasharray:none"
       d="m 26.347289,46.005888 c -1.282783,-1.383424 -1.951583,-3.558403 -1.951583,-6.346665 0,-3.272681 0.642506,-5.339954 2.056756,-6.617645 1.133921,-1.024429 1.699091,-0.725623 3.198903,1.691261 l 0.840595,1.354584 -0.06348,3.458589 c -0.06758,3.682071 -0.08832,3.78726 -1.03113,5.230062 -0.876363,1.341112 -1.284397,1.687116 -1.989575,1.687116 -0.475302,0 -0.743821,-0.11579 -1.060489,-0.457302 l 0,0 z"
       id="path3031"
       inkscape:connector-curvature="0"
       transform="translate(-27.5,-27.5)" />
    <path
       style="fill:none;stroke-width:0.33742332;stroke-miterlimit:4;stroke-dasharray:none"
       d="m 26.510573,45.725297 c -0.572672,-0.572672 -1.233429,-1.95286 -1.523087,-3.181421 -0.537766,-2.280887 -0.234866,-6.275198 0.599958,-7.911588 0.436604,-0.855813 1.432937,-1.834742 1.867362,-1.834742 0.453006,0 1.141269,0.749141 2.067609,2.25049 l 0.745402,1.208099 -0.129712,3.374233 c -0.07134,1.855828 -0.190737,3.526074 -0.265323,3.711657 -0.204171,0.508015 -1.168952,1.973664 -1.582555,2.404141 -0.48563,0.505443 -1.262452,0.496333 -1.779654,-0.02087 l 0,0 z"
       id="path3033"
       inkscape:connector-curvature="0"
       transform="translate(-27.5,-27.5)" />
    <path
       style="fill:none;stroke-width:0.33742332;stroke-miterlimit:4;stroke-dasharray:none"
       d="m 26.644864,45.416682 c -1.039102,-1.133547 -1.574675,-3.013521 -1.573037,-5.52169 0.0015,-2.275617 0.22219,-3.838229 0.692527,-4.903179 0.393782,-0.89161 1.272266,-1.856844 1.689962,-1.856844 0.328764,0 1.192051,0.999697 1.982936,2.296267 0.473273,0.775878 0.525445,0.995502 0.521017,2.193252 -0.0027,0.732068 -0.07636,2.307682 -0.163673,3.501363 l -0.158751,2.170329 -0.814656,1.203904 c -0.669106,0.98881 -0.90456,1.212858 -1.317864,1.254021 -0.352905,0.03515 -0.60932,-0.06564 -0.858461,-0.337423 l 0,0 z"
       id="path3035"
       inkscape:connector-curvature="0"
       transform="translate(-27.5,-27.5)" />
    <path
       style="fill:none;stroke-width:0.33742332;stroke-miterlimit:4;stroke-dasharray:none"
       d="m 26.780587,45.09923 c -1.036934,-1.113019 -1.43734,-2.988694 -1.335466,-6.255916 0.06071,-1.947138 0.145999,-2.599495 0.437615,-3.347351 0.344575,-0.88367 1.194445,-2.02357 1.508704,-2.02357 0.214615,0 0.919616,0.796069 1.643527,1.855828 l 0.633849,0.927914 -0.09862,3.434574 -0.09862,3.434574 -0.815978,1.12064 c -0.900617,1.236882 -1.333937,1.434084 -1.875013,0.853307 l 0,0 z"
       id="path3037"
       inkscape:connector-curvature="0"
       transform="translate(-27.5,-27.5)" />
    <path
       style="fill:none;stroke-width:0.33742332;stroke-miterlimit:4;stroke-dasharray:none"
       d="m 26.86481,44.801252 c -0.72302,-0.798929 -1.001095,-2.022213 -1.081153,-4.756115 -0.04878,-1.665636 -0.004,-2.972717 0.122804,-3.583442 0.192327,-0.926436 1.067158,-2.48217 1.466298,-2.607553 0.106321,-0.0334 0.607618,0.506592 1.113994,1.199981 l 0.920683,1.260706 -0.08134,3.344886 -0.08134,3.344886 -0.791945,1.01227 c -0.880037,1.12487 -1.156347,1.261351 -1.587999,0.784381 l 0,0 z"
       id="path3039"
       inkscape:connector-curvature="0"
       transform="translate(-27.5,-27.5)" />
    <path
       style="fill:none;stroke-width:0.33742332;stroke-miterlimit:4;stroke-dasharray:none"
       d="M 26.889355,44.396472 C 26.324866,43.520225 26.20124,42.783075 26.1237,39.831056 c -0.06794,-2.586454 -0.03755,-3.114994 0.218252,-3.796012 0.326521,-0.869295 0.864229,-1.719093 1.087751,-1.719093 0.07861,0 0.490999,0.463044 0.916426,1.028986 l 0.773503,1.028987 -10e-4,1.965645 c -5.57e-4,1.081105 -0.04936,2.58671 -0.108458,3.345788 -0.103551,1.330118 -0.134565,1.411145 -0.85563,2.23543 -0.4115,0.470408 -0.809484,0.855287 -0.884408,0.855287 -0.07492,0 -0.24627,-0.170821 -0.380769,-0.379602 z"
       id="path3041"
       inkscape:connector-curvature="0"
       transform="translate(-27.5,-27.5)" />
    <path
       style="fill:none;stroke-width:0.33742332;stroke-miterlimit:4;stroke-dasharray:none"
       d="m 26.800716,43.63727 c -0.215315,-0.491499 -0.29256,-1.35087 -0.346185,-3.851366 l -0.06903,-3.218697 0.498435,-0.985715 0.498435,-0.985715 0.786419,0.998891 0.786419,0.99889 -0.09408,2.446319 c -0.138002,3.588387 -0.178945,3.803365 -0.870065,4.568352 -0.328798,0.36394 -0.668775,0.66171 -0.755504,0.66171 -0.08673,0 -0.28241,-0.284701 -0.434847,-0.632669 z"
       id="path3043"
       inkscape:connector-curvature="0"
       transform="translate(-27.5,-27.5)" />
    <path
       style="fill:none;stroke-width:0.33742332;stroke-miterlimit:4;stroke-dasharray:none"
       d="M 27.090574,43.58665 C 26.95241,43.328488 26.821772,42.00446 26.731711,39.949542 l -0.141612,-3.231171 0.436267,-0.780567 0.436267,-0.780568 0.61761,0.769482 0.61761,0.769482 -0.112923,2.60495 c -0.134833,3.110389 -0.184692,3.366666 -0.800196,4.113088 l -0.47691,0.578348 -0.21725,-0.405936 z"
       id="path3045"
       inkscape:connector-curvature="0"
       transform="translate(-27.5,-27.5)" />
    <path
       style="fill:none;stroke-width:0.33742332;stroke-miterlimit:4;stroke-dasharray:none"
       d="m 29.512833,43.552914 c -0.07307,-0.115989 -0.123861,-0.666411 -0.112878,-1.223159 l 0.01997,-1.01227 -0.113779,0.927914 -0.113778,0.927914 -0.133633,-1.01227 c -0.192489,-1.458111 -0.289999,-1.53743 -0.207403,-0.168712 l 0.07127,1.180982 -0.245632,-0.927914 c -0.187651,-0.708879 -0.220833,-1.485355 -0.140572,-3.289435 0.09716,-2.183872 0.252743,-2.904085 0.583237,-2.699829 0.07176,0.04435 0.22728,-0.036 0.345593,-0.178555 0.347442,-0.418643 0.491902,0.02241 0.500549,1.528248 0.0043,0.742332 0.07512,2.276359 0.157452,3.408951 0.08234,1.132591 0.108652,2.216223 0.05848,2.408071 -0.08629,0.329965 -0.103795,0.332648 -0.323993,0.04964 -0.218038,-0.280233 -0.226267,-0.280482 -0.129957,-0.0039 0.118687,0.340807 -0.01927,0.394953 -0.214926,0.08436 z m 0.468659,-1.403659 c -0.08683,-0.595582 -0.154193,-0.787112 -0.16644,-0.473258 -0.02206,0.565376 0.153616,1.632431 0.252483,1.533564 0.0329,-0.0329 -0.0058,-0.510041 -0.08604,-1.060306 l 0,0 z m -0.738329,-3.151556 c -0.03552,-0.394363 -0.06458,-0.0717 -0.06458,0.717025 0,0.788727 0.02906,1.111388 0.06458,0.717024 0.03552,-0.394363 0.03552,-1.039685 0,-1.434049 z m 0.394859,-1.729294 -0.166479,-1.180982 0.07591,1.180982 c 0.04175,0.64954 0.09191,1.788343 0.111452,2.530675 l 0.03554,1.349693 0.05503,-1.349693 c 0.03026,-0.742332 -0.01989,-1.881135 -0.111452,-2.530675 z m -0.90248,1.898006 c -0.03742,-0.301572 -0.06804,-0.05483 -0.06804,0.548313 0,0.603144 0.03062,0.849885 0.06804,0.548313 0.03743,-0.301572 0.03743,-0.795054 0,-1.096626 z"
       id="path3047"
       inkscape:connector-curvature="0"
       transform="translate(-27.5,-27.5)" />
    <path
       style="fill:none;stroke-width:0.33742332;stroke-miterlimit:4;stroke-dasharray:none"
       d="m 29.435966,43.904397 c -0.0116,-0.07733 -0.03058,-0.216514 -0.04218,-0.309305 -0.0116,-0.09279 -0.09139,-0.149732 -0.177317,-0.126534 -0.08592,0.0232 -0.253322,-0.185583 -0.371992,-0.463957 -0.118669,-0.278374 -0.224,-0.392254 -0.234067,-0.253067 -0.01209,0.167105 -0.06568,0.136151 -0.157786,-0.09113 -0.121959,-0.300949 0.06207,-5.32677 0.228321,-6.235559 0.03395,-0.185583 0.144276,-0.319199 0.245169,-0.296925 0.100893,0.02227 0.268267,-0.118 0.371944,-0.311721 0.184396,-0.344547 0.193432,-0.345182 0.414794,-0.02914 0.124461,0.177693 0.2569,0.621648 0.294309,0.986568 l 0.06802,0.663491 0.0523,-0.759203 0.0523,-0.759202 0.120829,0.674846 0.12083,0.674847 0.02394,-0.622712 c 0.01317,-0.342491 0.09986,-0.669633 0.192653,-0.726981 0.109462,-0.06765 0.18195,0.921286 0.206408,2.815963 l 0.03769,2.920233 0.04813,-2.783742 c 0.05158,-2.983096 0.113903,-3.452318 0.402738,-3.032082 0.131271,0.190991 0.147071,0.163958 0.06842,-0.117064 -0.05625,-0.200971 -0.02326,-0.414233 0.0733,-0.473914 0.21276,-0.131492 0.205389,-0.29524 0.178273,3.960483 -0.02278,3.574624 -0.09961,4.433561 -0.359851,4.022933 -0.107451,-0.169542 -0.145766,-0.141601 -0.151529,0.110503 -0.0077,0.337423 -0.0077,0.337423 -0.205686,0 -0.117135,-0.199644 -0.241103,-1.508554 -0.303598,-3.205522 l -0.105625,-2.868098 -0.06503,2.615031 c -0.03577,1.438266 -0.05311,2.901472 -0.03855,3.251567 0.01517,0.364597 -0.04189,0.594277 -0.133565,0.537619 -0.08803,-0.0544 -0.200742,0.0071 -0.250476,0.136726 -0.0972,0.253296 -0.568255,0.327532 -0.603128,0.09505 z m 1.650158,-1.704387 c -0.04621,-0.114223 -0.08121,0.02008 -0.07777,0.298456 0.0034,0.278374 0.04125,0.37183 0.08403,0.207679 0.04277,-0.164151 0.03996,-0.391912 -0.0063,-0.506135 l -1e-6,0 z m 0.352377,-3.62409 c -0.03093,-0.811925 -0.05623,-0.147622 -0.05623,1.476227 0,1.62385 0.0253,2.288152 0.05623,1.476227 0.03093,-0.811925 0.03093,-2.140529 0,-2.952454 l 0,0 z m -2.891786,3.377748 c -0.05606,-0.05606 -0.09594,0.04358 -0.08861,0.221434 0.0081,0.19654 0.04807,0.236517 0.10193,0.10193 0.04874,-0.121789 0.04274,-0.267302 -0.01332,-0.323364 l 0,0 z m 1.704252,-1.774987 c -0.04021,-0.208781 -0.07311,-0.03796 -0.07311,0.379601 0,0.417562 0.0329,0.588382 0.07311,0.379601 0.04021,-0.20878 0.04021,-0.550421 0,-0.759202 z m -1.029405,0.425294 c -0.05606,-0.05606 -0.09594,0.04358 -0.08861,0.221434 0.0081,0.196539 0.04807,0.236517 0.10193,0.10193 0.04874,-0.121789 0.04274,-0.267303 -0.01332,-0.323364 l 0,0 z m 0,-2.193252 c -0.05606,-0.05606 -0.09594,0.04358 -0.08861,0.221434 0.0081,0.19654 0.04807,0.236517 0.10193,0.10193 0.04874,-0.121788 0.04274,-0.267302 -0.01332,-0.323364 l 0,0 z"
       id="path3049"
       inkscape:connector-curvature="0"
       transform="translate(-27.5,-27.5)" />
    <path
       style="fill:none;stroke-width:0.33742332;stroke-miterlimit:4;stroke-dasharray:none"
       d="m 27.204154,42.806976 c -0.05946,-0.355263 -0.157496,-1.861718 -0.217864,-3.347677 -0.09715,-2.391437 -0.07545,-2.768085 0.18893,-3.279345 l 0.298689,-0.5776 0.473906,0.579958 c 0.456767,0.558982 0.470729,0.631824 0.386039,2.014007 -0.231232,3.773872 -0.343479,4.578473 -0.686592,4.921586 -0.334197,0.334197 -0.335264,0.333449 -0.443108,-0.310929 z"
       id="path3051"
       inkscape:connector-curvature="0"
       transform="translate(-27.5,-27.5)" />
    <path
       style="fill:none;stroke-width:0.33742332;stroke-miterlimit:4;stroke-dasharray:none"
       d="m 27.374322,41.477376 c -0.156928,-1.856457 -0.132249,-4.841349 0.04231,-5.116959 0.11578,-0.182806 0.211902,-0.135094 0.44522,0.220995 0.275081,0.419827 0.282274,0.653095 0.0952,3.087669 -0.237101,3.085616 -0.425369,3.669842 -0.582727,1.808295 z"
       id="path3053"
       inkscape:connector-curvature="0"
       transform="translate(-27.5,-27.5)" />
    <path
       style="fill:none;stroke-width:0.33742332;stroke-miterlimit:4;stroke-dasharray:none"
       d="m 27.896098,41.82362 c -0.06734,-0.371166 -0.114406,-0.978528 -0.10458,-1.349694 0.01676,-0.632922 0.02749,-0.6172 0.172771,0.253068 0.0852,0.510353 0.132259,1.117715 0.10458,1.349693 -0.03894,0.326392 -0.07802,0.26916 -0.172771,-0.253067 l 0,0 z"
       id="path3055"
       inkscape:connector-curvature="0"
       transform="translate(-27.5,-27.5)" />
    <path
       style="fill:none;stroke-width:0.33742332;stroke-miterlimit:4;stroke-dasharray:none"
       d=""
       id="path3057"
       inkscape:connector-curvature="0"
       transform="translate(-27.5,-27.5)" />
    <path
       style="fill:#000000;stroke-width:0.33742332000000003;stroke-miterlimit:4;stroke-dasharray:none"
       d="m 29.567739,44.193356 c -0.06246,-0.162781 -0.192342,-0.230287 -0.306875,-0.159502 -0.133401,0.08245 -0.163797,0.0321 -0.09261,-0.153401 0.06382,-0.166301 -0.01277,-0.361842 -0.192545,-0.491634 C 28.5205,43.06018 28.376087,42.744068 28.26066,41.82362 l -0.105786,-0.843559 -0.02634,0.759203 c -0.01449,0.417561 -0.107236,0.873083 -0.206112,1.01227 -0.137209,0.193148 -0.156022,0.133229 -0.07945,-0.253068 0.08955,-0.451776 0.07836,-0.469896 -0.104129,-0.168711 -0.198393,0.327426 -0.20796,0.324927 -0.322924,-0.08436 -0.106671,-0.379755 -0.121332,-0.362945 -0.14715,0.168711 -0.01577,0.32477 -0.08964,0.742332 -0.164158,0.927915 -0.184611,0.45978 -0.324998,-1.28194 -0.309367,-3.838191 0.0095,-1.547735 0.06216,-1.982362 0.240344,-1.982362 0.147605,0 0.228222,-0.205067 0.228222,-0.580534 0,-0.577609 0.226047,-0.917148 0.411172,-0.617609 0.05339,0.08638 0.0017,0.201499 -0.114876,0.25582 -0.169232,0.07886 -0.169444,0.118597 -0.0011,0.19718 0.142883,0.06668 0.216313,0.569927 0.227707,1.560583 0.0092,0.804192 0.07074,1.651968 0.136637,1.883947 0.0659,0.231978 0.104568,-0.489264 0.08593,-1.602761 -0.02781,-1.66104 -0.01225,-1.812498 0.08664,-0.843558 l 0.120529,1.180981 0.04661,-1.180981 c 0.03653,-0.925543 0.07878,-1.089754 0.195369,-0.759203 0.142614,0.404356 0.14616,0.40151 0.08583,-0.06889 -0.07672,-0.598194 0.805409,-1.972615 0.977774,-1.523439 0.05757,0.15004 0.18704,0.211038 0.299888,0.141294 0.131557,-0.08131 0.164371,-0.03359 0.09723,0.141376 -0.06898,0.179751 -0.0137,0.251238 0.173074,0.223825 0.15093,-0.02215 0.305182,-0.132567 0.342782,-0.245367 0.04658,-0.139746 0.147551,-0.108172 0.316902,0.0991 0.136696,0.167303 0.201793,0.211431 0.14466,0.09806 -0.05713,-0.113368 0.02486,-0.402599 0.1822,-0.642735 0.215408,-0.328755 0.320695,-0.382028 0.426207,-0.215655 0.110718,0.174581 0.14316,0.167842 0.15457,-0.03211 0.0095,-0.166057 0.06005,-0.137053 0.147098,0.08436 0.07296,0.185583 0.148056,1.891972 0.166877,3.791976 0.01882,1.900004 0.06767,3.488003 0.108553,3.528886 0.04088,0.04088 0.09059,-1.323865 0.110457,-3.032774 l 0.03612,-3.107106 0.09646,2.952454 0.09646,2.952454 0.04798,-2.868098 c 0.02639,-1.577454 0.09959,-2.998428 0.162658,-3.15772 0.06307,-0.159291 0.10521,1.055433 0.09364,2.699387 l -0.02103,2.989008 0.116221,-2.868099 c 0.08759,-2.161663 0.186435,-3.01354 0.401289,-3.458588 0.311597,-0.645443 0.300149,-0.365168 -0.0379,0.927914 -0.226187,0.865192 -0.236126,4.713758 -0.0149,5.77007 0.100674,0.480702 0.110407,1.015331 0.02395,1.315819 l -0.145621,0.506135 -0.201752,-0.759202 c -0.294949,-1.109905 -0.357903,-1.189335 -0.26743,-0.337424 l 0.08063,0.759203 -0.238619,-0.590491 c -0.20703,-0.512319 -0.240319,-0.536515 -0.251455,-0.182771 -0.0071,0.224246 -0.06977,0.350906 -0.139369,0.281467 -0.06959,-0.06944 -0.174621,-0.974155 -0.233394,-2.01048 l -0.106861,-1.884228 0.0225,2.050634 c 0.01238,1.127848 -0.03508,2.015034 -0.105456,1.971523 -0.07038,-0.04351 -0.184259,0.05863 -0.253068,0.226973 -0.157889,0.38629 -0.632234,0.518778 -0.48516,0.13551 0.05883,-0.153317 0.03258,-0.225136 -0.06112,-0.167225 -0.09953,0.06151 -0.131929,-0.117834 -0.08224,-0.455194 0.08013,-0.543964 0.07839,-0.545759 -0.07612,-0.07847 -0.08697,0.263027 -0.112112,0.598143 -0.05587,0.744701 0.06765,0.176306 0.03547,0.225192 -0.09513,0.144479 -0.108561,-0.06709 -0.197383,-0.03711 -0.197383,0.06664 0,0.103744 -0.07125,0.144588 -0.158342,0.09076 -0.08709,-0.05382 -0.227617,0.02593 -0.312287,0.177221 -0.141571,0.252974 -0.162648,0.2524 -0.262245,-0.0071 z m 3.451863,-1.711603 c -0.08493,-0.361974 -0.161009,-0.506293 -0.169063,-0.32071 -0.01741,0.401247 0.164474,1.137849 0.257898,1.044426 0.03607,-0.03607 -0.0039,-0.361743 -0.08884,-0.723716 z m -1.5908,-0.533567 c -0.04223,-0.161303 -0.07525,0.0104 -0.07337,0.381569 0.0019,0.371165 0.03642,0.50314 0.07678,0.293278 0.04035,-0.209863 0.03882,-0.513544 -0.0034,-0.674847 l 0,0 z m -4.383356,-0.419812 c -0.04021,-0.20878 -0.07311,-0.03796 -0.07311,0.379601 0,0.417562 0.0329,0.588382 0.07311,0.379602 0.04021,-0.208781 0.04021,-0.550422 0,-0.759203 l 0,0 z m 0.623772,-2.04137 c -0.06463,-1.081043 -0.163308,-1.964369 -0.219284,-1.962948 -0.449873,0.01142 -0.514359,0.329368 -0.39471,1.94613 l 0.124224,1.678587 0.09351,-1.771472 0.09351,-1.771473 0.03303,2.10046 c 0.02306,1.466683 0.08646,2.047022 0.210131,1.923354 0.117232,-0.117232 0.13738,-0.841597 0.0596,-2.142638 z M 28.391992,39.2488 c -0.04223,-0.161303 -0.07524,0.0104 -0.07337,0.381568 0.0019,0.371166 0.03642,0.503141 0.07678,0.293278 0.04035,-0.209862 0.03882,-0.513543 -0.0034,-0.674846 l 0,0 z m 3.037189,-1.853861 c -0.04244,-0.162385 -0.07716,-0.02952 -0.07716,0.295245 0,0.32477 0.03472,0.45763 0.07716,0.295245 0.04244,-0.162385 0.04244,-0.428105 0,-0.59049 z m -4.969794,0.126533 c 0,-0.32477 0.03472,-0.45763 0.07716,-0.295245 0.04243,0.162385 0.04243,0.428106 0,0.590491 -0.04244,0.162385 -0.07716,0.02952 -0.07716,-0.295246 z"
       id="path3059"
       inkscape:connector-curvature="0"
       transform="translate(-27.5,-27.5)" />
    <path
       style="fill:#000000;stroke-width:0.33742332000000003;stroke-miterlimit:4;stroke-dasharray:none;fill-rule:nonzero;fill-opacity:1"
       d="m 26.451396,52.512667 c -2.434487,-0.393552 -4.847777,-2.449916 -6.260984,-5.334981 -2.002081,-4.087256 -2.237621,-9.557963 -0.599557,-13.925492 0.778983,-2.076986 1.495233,-3.220115 2.876104,-4.590245 l 1.192419,-1.183141 -1.12353,-1.094466 C 19.906686,23.823194 18.557816,20.04184 18.594687,15.33589 c 0.02567,-3.276549 0.742635,-6.1595361 2.102305,-8.4536028 0.893765,-1.5079824 2.571943,-3.1201438 3.948234,-3.7929172 1.101251,-0.5383259 1.286823,-0.5755663 2.868098,-0.5755663 1.558393,0 1.77174,0.041135 2.726964,0.5257788 2.427909,1.2318275 3.96893,3.1209592 5.188154,6.3601385 1.357458,3.606435 1.357458,8.603325 0,12.20976 -0.884157,2.34899 -2.23164,4.372404 -3.535201,5.308552 l -0.741431,0.532455 1.086582,0.995655 c 3.863944,3.540603 5.257335,10.725284 3.265171,16.836066 -1.027812,3.152719 -3.080617,5.720399 -5.380328,6.729796 -0.662428,0.290756 -1.0619,0.388251 -2.437652,0.594938 C 27.5,52.634825 26.944616,52.5924 26.451396,52.512667 l 0,0 z m 1.445076,-2.289948 c -0.255176,-0.03866 -0.672737,-0.03866 -0.927914,0 -0.255176,0.03866 -0.0464,0.07028 0.463957,0.07028 0.510353,0 0.719134,-0.03163 0.463957,-0.07028 z m 1.949679,-0.61029 c 1.535793,-0.900034 2.838442,-2.833483 3.656304,-5.426846 0.323356,-1.025332 0.375936,-1.598027 0.398951,-4.345292 0.01707,-2.037359 -0.02533,-2.968687 -0.119043,-2.615031 -0.08005,0.302104 -0.1116,1.612163 -0.0701,2.911243 0.05187,1.623765 0.02808,2.15105 -0.07611,1.687117 -0.157908,-0.703126 -0.08427,-4.917073 0.09876,-5.651841 0.05779,-0.231978 -0.0024,-0.101978 -0.133659,0.28889 -0.234114,0.696943 -0.464113,5.774116 -0.245459,5.418464 0.0565,-0.0919 0.151398,0.07629 0.210889,0.373746 0.14752,0.737599 0.135759,1.041756 -0.03617,0.935496 -0.07939,-0.04906 -0.111404,0.117277 -0.07115,0.369644 0.05849,0.3667 0.03563,0.408028 -0.113852,0.205785 -0.146471,-0.198172 -0.163305,-0.150982 -0.0776,0.217543 0.157601,0.677707 -0.274656,0.531196 -0.641825,-0.217543 -0.287287,-0.585841 -0.288864,-0.586506 -0.20024,-0.08436 0.07383,0.418359 0.05677,0.454933 -0.09842,0.210889 -0.276174,-0.434309 -0.662518,-0.37677 -0.566388,0.08436 0.07844,0.376271 0.07705,0.376097 -0.15886,-0.0198 -0.199672,-0.335089 -0.254853,-0.355462 -0.342701,-0.126534 -0.05759,0.150076 -0.05623,0.399199 0.003,0.553607 0.07244,0.18877 0.04307,0.24078 -0.08965,0.158756 -0.10856,-0.0671 -0.198545,-0.25037 -0.199966,-0.407278 -0.0016,-0.17912 -0.04871,-0.2157 -0.126533,-0.0983 -0.06817,0.102846 -0.251555,0.167276 -0.407515,0.143177 -0.200654,-0.03101 -0.253079,0.03764 -0.179301,0.234786 0.08857,0.23667 0.06368,0.245629 -0.165373,0.05952 -0.200378,-0.162809 -0.300578,-0.169016 -0.390101,-0.02417 -0.08792,0.142255 -0.158687,0.133072 -0.261933,-0.03399 -0.07781,-0.125896 -0.239139,-0.230733 -0.358513,-0.232971 -0.119373,-0.0022 -0.206635,-0.134282 -0.193913,-0.29343 0.01272,-0.159147 -0.03902,-0.250946 -0.114991,-0.203997 -0.07597,0.04695 -0.258656,-0.08673 -0.405979,-0.297061 -0.147323,-0.210333 -0.323338,-0.355578 -0.391145,-0.322767 -0.06781,0.03281 -0.332066,0.167621 -0.587242,0.299578 -0.440307,0.227691 -0.464146,0.220351 -0.467662,-0.144013 -0.0027,-0.283776 -0.09608,-0.185879 -0.357787,0.375269 l -0.354081,0.759202 -0.262434,-0.59049 c -0.20736,-0.466571 -0.262669,-1.263202 -0.263552,-3.796013 -10e-4,-2.915253 -0.0063,-2.97403 -0.05883,-0.649106 -0.0465,2.059791 -0.106056,2.574967 -0.306576,2.651913 -0.210995,0.08097 -0.253662,-0.256712 -0.280373,-2.21899 l -0.03151,-2.314491 -0.09503,2.494967 c -0.07468,1.960869 -0.149201,2.528614 -0.348095,2.65215 -0.190026,0.118028 -0.280399,0.06388 -0.362784,-0.217359 -0.102997,-0.351606 -0.110746,-0.353364 -0.126534,-0.02869 -0.0092,0.190223 -0.08848,0.417983 -0.176065,0.506135 -0.08759,0.08815 -0.174441,0.729678 -0.193008,1.425614 -0.01857,0.695935 -0.09356,1.417178 -0.166657,1.60276 -0.07501,0.190447 -0.106541,-0.260064 -0.07239,-1.034259 0.036,-0.816055 -0.0309,-1.704476 -0.165144,-2.193252 -0.165647,-0.6031 -0.234971,-0.709411 -0.260698,-0.399789 -0.0328,0.39478 -0.04246,0.38938 -0.150824,-0.08436 -0.111671,-0.488187 -0.120112,-0.479214 -0.238029,0.253067 -0.06724,0.417562 -0.202098,0.873083 -0.299687,1.01227 -0.1393,0.198679 -0.160273,0.162419 -0.09758,-0.168711 0.04392,-0.231979 0.02323,-0.991181 -0.04597,-1.687117 l -0.125821,-1.265337 -0.02474,0.974306 c -0.01361,0.535869 -0.171673,1.392354 -0.351257,1.9033 -0.321918,0.915916 -0.321976,0.942186 -0.0041,1.866059 0.465353,1.352574 1.251589,2.647766 2.195699,3.617047 1.155409,1.186215 1.781337,1.427894 3.650008,1.409319 1.339221,-0.01331 1.630411,-0.07197 2.297334,-0.462817 l -1e-6,0 z M 26.577,43.004601 c 0,-0.09279 -0.1085,0.02109 -0.24111,0.253068 -0.132611,0.231978 -0.241111,0.497699 -0.241111,0.590491 0,0.09279 0.1085,-0.02109 0.241111,-0.253068 0.13261,-0.231979 0.24111,-0.497699 0.24111,-0.590491 z m -4.904802,-0.674846 c 8.6e-4,-0.185583 -0.1061,0.0042 -0.237671,0.421779 -0.131572,0.417561 -0.234597,0.835122 -0.228946,0.927914 0.01798,0.295284 0.465001,-0.997724 0.466617,-1.349693 z m 4.474997,0.834795 c 0.05761,-0.15014 0.02933,-0.217861 -0.0663,-0.158754 -0.09173,0.05669 -0.16678,0.174515 -0.16678,0.26183 0,0.24268 0.120927,0.189203 0.233085,-0.103076 z m 1.541903,-0.339205 c 0.01353,-0.08699 -0.0099,-0.09264 -0.05206,-0.01255 -0.04216,0.08009 -0.142227,0.04213 -0.222365,-0.08436 -0.112582,-0.177697 -0.146293,-0.159665 -0.148289,0.07932 -0.0026,0.30633 0.375349,0.322042 0.422711,0.01758 l 0,8e-6 z m -6.34206,-1.072022 c 0.01661,-0.807289 -0.09088,-0.595375 -0.206806,0.40772 -0.06272,0.542703 -0.04534,0.723216 0.04873,0.506135 0.08042,-0.185583 0.151554,-0.596818 0.158076,-0.913855 l 0,0 z m 4.510095,0.449898 c -0.0468,-0.115989 -0.0851,-0.02109 -0.0851,0.210889 0,0.231979 0.03829,0.326879 0.0851,0.21089 0.0468,-0.115989 0.0468,-0.30579 0,-0.421779 z m 0.443346,0.210657 c 0.04856,-0.185711 0.01946,-0.295111 -0.06468,-0.243111 -0.08414,0.052 -0.152978,0.203946 -0.152978,0.337657 0,0.349191 0.114639,0.299394 0.217657,-0.09455 l 0,0 z m 0.421383,-0.191544 c -0.04212,-0.126356 -0.118594,-0.04988 -0.178252,0.178253 -0.07339,0.280626 -0.05143,0.346496 0.07377,0.2213 0.09804,-0.09804 0.145057,-0.277837 0.104485,-0.399553 z m -3.236496,-0.09995 c -0.05606,-0.05606 -0.09594,0.04359 -0.08861,0.221434 0.0081,0.196541 0.04807,0.236517 0.10193,0.101931 0.04874,-0.12179 0.04274,-0.267304 -0.01332,-0.323365 l 1e-6,0 z m 0.337423,0 c -0.05606,-0.05606 -0.09594,0.04359 -0.08861,0.221434 0.0081,0.196541 0.04807,0.236517 0.10193,0.101931 0.04874,-0.12179 0.04274,-0.267304 -0.01332,-0.323365 l 1e-6,0 z M 22.48183,41.693875 c -0.04621,-0.114223 -0.08121,0.02008 -0.07777,0.298456 0.0034,0.278375 0.04125,0.371831 0.08403,0.207679 0.04278,-0.164151 0.03996,-0.391912 -0.0063,-0.506135 l -1e-6,0 z m -1.513151,-0.589247 c -0.04223,-0.161304 -0.07525,0.01041 -0.07337,0.381568 0.0019,0.371166 0.03642,0.503141 0.07678,0.293279 0.04036,-0.209863 0.03882,-0.513544 -0.0034,-0.674847 l 0,0 z m 1.088039,-2.149107 c 0.06885,0.816199 0.08255,0.633806 0.04433,-0.59049 -0.03042,-0.97431 0.0039,-2.037194 0.07626,-2.361964 0.12707,-0.570336 0.139247,-0.550492 0.356768,0.581403 0.123864,0.644539 0.284582,1.973143 0.357152,2.952454 l 0.131944,1.780561 -0.05282,-2.193252 c -0.03498,-1.452607 -0.0059,-1.965361 0.08605,-1.518405 0.07638,0.371166 0.155074,1.472009 0.17488,2.446319 l 0.03601,1.771473 0.13491,-2.277608 c 0.0742,-1.252684 0.09166,-2.581288 0.0388,-2.952454 -0.126448,-0.887818 0.07978,-0.677127 0.26619,0.271947 l 0.145407,0.740323 0.03845,-0.590491 0.03845,-0.59049 0.128789,0.506135 c 0.07083,0.278374 0.137772,1.486771 0.148751,2.685327 0.01098,1.198555 0.05324,2.14591 0.09392,2.105232 0.04068,-0.04068 0.09434,-1.417801 0.119253,-3.060271 0.04691,-3.092929 0.144039,-3.477829 0.729818,-2.89205 0.231458,0.231459 0.259048,0.22639 0.268643,-0.04935 0.0083,-0.237517 0.0546,-0.21152 0.204067,0.114483 0.106355,0.231978 0.238662,1.712423 0.294015,3.289877 l 0.100643,2.868098 0.03502,-2.699386 c 0.01926,-1.484663 0.08126,-2.871975 0.137775,-3.082919 0.09638,-0.359734 0.116842,-0.364969 0.329754,-0.08436 0.124849,0.164548 0.229412,0.558571 0.232363,0.875609 0.0077,0.829211 0.163683,0.554238 0.19784,-0.348803 0.0278,-0.735031 0.04259,-0.755203 0.424367,-0.578953 0.217558,0.100436 0.359986,0.277428 0.316506,0.393314 -0.04348,0.115885 -0.01036,0.381606 0.0736,0.590491 0.152416,0.379205 0.152685,0.379141 0.175202,-0.04199 0.02016,-0.377062 0.03628,-0.386658 0.152074,-0.09051 0.115174,0.294577 0.144816,0.275887 0.267592,-0.168712 0.07594,-0.274991 0.156802,-0.590528 0.179695,-0.701191 0.14817,-0.716253 0.97807,-1.070556 1.356085,-0.578942 0.13587,0.176702 0.217539,0.188345 0.306903,0.04375 0.06697,-0.108362 0.189207,-0.155341 0.271635,-0.104399 0.08243,0.05094 0.268932,-0.137618 0.414454,-0.419026 0.285826,-0.552726 0.525505,-0.697644 0.357912,-0.216406 -0.09592,0.275427 -0.08715,0.275098 0.130664,-0.0049 0.215193,-0.276629 0.254193,-0.250197 0.497855,0.337424 0.18498,0.446104 0.271552,0.536236 0.288281,0.300143 0.0153,-0.215968 0.08723,-0.124877 0.199817,0.253067 l 0.175908,0.590491 0.226827,-0.506135 c 0.124754,-0.278374 0.188752,-0.678513 0.142216,-0.889198 -0.04654,-0.210686 4.39e-4,-0.541966 0.104374,-0.736182 0.273463,-0.510972 -0.76172,-2.532846 -1.876769,-3.665622 -1.280005,-1.300353 -2.126416,-1.661744 -3.809152,-1.626385 -1.148477,0.02413 -1.49605,0.101716 -2.136092,0.476804 -1.530064,0.896678 -3.429258,3.561455 -3.217586,4.514626 0.065,0.292722 0.04451,0.342598 -0.07276,0.177021 -0.342591,-0.48374 -0.985118,2.272416 -1.096007,4.70139 -0.04024,0.881518 -0.03009,1.185199 0.02257,0.674847 l 0.09574,-0.927914 0.112607,1.096625 c 0.08141,0.792869 0.09977,0.55921 0.06628,-0.843558 -0.02908,-1.217897 0.0028,-1.720358 0.0857,-1.349693 0.103989,0.465084 0.121252,0.375508 0.08129,-0.421779 l -0.05074,-1.01227 0.237762,0.843558 0.237762,0.843558 -0.08026,-0.759202 c -0.04414,-0.417562 -0.124472,-0.949003 -0.178509,-1.180982 -0.09299,-0.399224 -0.08637,-0.403735 0.123972,-0.08436 0.163914,0.248891 0.218726,1.112095 0.208904,3.289878 -0.01219,2.702993 -0.0047,2.781395 0.08848,0.927914 0.09857,-1.960229 0.104966,-1.987025 0.201428,-0.843558 l 0,-6e-6 z m 1.957584,-0.302262 c -0.03284,-0.576086 -0.05947,-0.06047 -0.05918,1.145821 2.87e-4,1.206288 0.02717,1.677633 0.05972,1.047431 0.03255,-0.630201 0.03231,-1.617164 -5.4e-4,-2.193252 l 3e-6,0 z m 0.758476,0.175351 c 0.02459,-0.904926 -0.01223,-1.645148 -0.08183,-1.644939 -0.06959,1.69e-4 -0.112849,1.082242 -0.09612,2.404519 0.0311,2.458321 0.09831,2.171414 0.177951,-0.75958 z m 1.603432,0.253445 c -0.03348,-0.53355 -0.06087,-0.09701 -0.06087,0.970092 0,1.067101 0.02739,1.503643 0.06087,0.970092 0.03348,-0.53355 0.03348,-1.406633 0,-1.940184 z m 0.333811,1.689437 c -0.03878,-0.256452 -0.07154,-0.08668 -0.07281,0.377281 -0.0013,0.463957 0.03046,0.673782 0.07051,0.466277 0.04005,-0.207505 0.04108,-0.587107 0.0023,-0.843558 l 0,0 z m -3.033492,-1.605081 c -0.03408,-0.487155 -0.06196,-0.08857 -0.06196,0.885736 0,0.97431 0.02788,1.372891 0.06196,0.885736 0.03408,-0.487154 0.03408,-1.284317 0,-1.771472 z m -1.189445,1.26337 c -0.04223,-0.161303 -0.07524,0.01041 -0.07337,0.381569 0.0019,0.371165 0.03642,0.50314 0.07678,0.293278 0.04035,-0.209862 0.03882,-0.513543 -0.0034,-0.674847 l 0,0 z m -1.004905,-1.605883 c -0.03538,-0.391565 -0.06391,-0.02865 -0.0634,0.80647 5.06e-4,0.835123 0.02946,1.155493 0.06433,0.711935 0.03487,-0.44356 0.03445,-1.126842 -9.28e-4,-1.518405 l -6e-6,0 z m 12.65387,-0.253633 c -0.03463,-0.437648 -0.0626,-0.03652 -0.06216,0.891391 4.38e-4,0.927915 0.02877,1.285992 0.06296,0.795726 0.03419,-0.490266 0.03383,-1.249469 -7.93e-4,-1.687117 l -5e-6,0 z M 22.529119,38.22006 c -0.07622,-0.961251 -0.181017,-1.790159 -0.232873,-1.842014 -0.09874,-0.09874 0.03045,2.167847 0.179153,3.143027 0.164855,1.081143 0.191482,0.43628 0.05372,-1.301013 l 0,0 z m 4.667903,-1.833877 c -0.05606,-0.05606 -0.09594,0.04359 -0.08861,0.221434 0.0081,0.196541 0.04807,0.236517 0.10193,0.101931 0.04874,-0.12179 0.04274,-0.267304 -0.01332,-0.323365 l 0,0 z m 5.230061,0 c -0.05606,-0.05606 -0.09594,0.04359 -0.08861,0.221434 0.0081,0.196541 0.04807,0.236517 0.10193,0.101931 0.04874,-0.12179 0.04274,-0.267304 -0.01332,-0.323365 l 0,0 z m 0.506135,-0.506135 c -0.05606,-0.05606 -0.09594,0.04359 -0.08861,0.221434 0.0081,0.196541 0.04807,0.236517 0.10193,0.101931 0.04874,-0.12179 0.04274,-0.267304 -0.01332,-0.323365 l 0,0 z m 0.56674,-1.161033 c -0.147747,-0.44768 -0.241355,-0.550063 -0.348409,-0.381071 -0.211365,0.333654 -0.180554,0.616338 0.03438,0.31543 0.145206,-0.203287 0.164386,-0.17835 0.09751,0.126767 -0.04579,0.208909 -0.01442,0.337288 0.06972,0.285288 0.08414,-0.052 0.158972,0.08075 0.166297,0.295012 0.0073,0.214257 0.05139,0.29532 0.09792,0.180141 0.04653,-0.115182 -0.0063,-0.484886 -0.117421,-0.821567 l 0,0 z M 27.72455,28.631551 c -0.164151,-0.04278 -0.391912,-0.03996 -0.506135,0.0063 -0.114223,0.04621 0.02008,0.08121 0.298456,0.07777 0.278374,-0.0034 0.37183,-0.04125 0.207679,-0.08403 l 0,-8e-6 z m 1.287036,-2.588098 c 3.064394,-1.146536 5.162093,-5.429166 5.162093,-10.538852 0,-4.871454 -1.818931,-8.8610127 -4.74203,-10.4009485 C 28.2988,4.506849 26.623774,4.550235 25.435077,5.2071707 c -2.8404,1.569753 -4.601038,5.5101793 -4.601038,10.2974303 0,5.279605 2.129637,9.481163 5.397635,10.648982 0.880929,0.314801 1.734571,0.280983 2.779912,-0.11013 z"
       id="path3061"
       inkscape:connector-curvature="0"
       transform="translate(-27.5,-27.5)" />
    <path
       style="fill:#000000;fill-opacity:1;fill-rule:nonzero;stroke-width:0.33742332;stroke-miterlimit:4;stroke-dasharray:none"
       d=""
       id="path3837"
       inkscape:connector-curvature="0"
       transform="translate(-27.5,-27.5)" />
  </g>
</svg>
