<?xml version="1.0" encoding="UTF-8" standalone="no"?>


<svg
   xmlns:dc="http://purl.org/dc/elements/1.1/"
   xmlns:cc="http://creativecommons.org/ns#"
   xmlns:rdf="http://www.w3.org/1999/02/22-rdf-syntax-ns#"
   xmlns:svg="http://www.w3.org/2000/svg"
   
   
   version="1.1"
   width="55"
   height="55"
   viewBox="-27.5 -27.5 55 55"
   id="svg2997">
  <svg:desc
     id="en">
	Codes 00-09 General Group: No precipitation, fog, duststorm, sandstorm, drifting or blowing snow at the station at the time of observation or, except for 09 during the preceeding hour.
	Code: 05
	Description: Haze
</svg:desc>
  <svg:metadata
     id="metadata3007">
    <rdf:RDF>
      <cc:Work
         rdf:about="">
        <dc:format>image/svg+xml</dc:format>
        <dc:type
           rdf:resource="http://purl.org/dc/dcmitype/StillImage" />
        <dc:title />
      </cc:Work>
    </rdf:RDF>
  </svg:metadata>
  <defs
     id="defs3005">
    <svg:marker
       refX="0"
       refY="0"
       orient="auto"
       id="Arrow2Sstart"
       style="overflow:visible">
      <svg:path
         d="M 8.7185878,4.0337352 -2.2072895,0.01601326 8.7185884,-4.0017078 c -1.7454984,2.3720609 -1.7354408,5.6174519 -6e-7,8.035443 z"
        
         transform="matrix(0.3,0,0,0.3,-0.69,0)"
         id="path3806"
         style="font-size:12px;fill-rule:evenodd;stroke-width:0.625;stroke-linejoin:round" />
    </svg:marker>
    <svg:marker
       refX="0"
       refY="0"
       orient="auto"
       id="Arrow2Mstart"
       style="overflow:visible">
      <svg:path
         d="M 8.7185878,4.0337352 -2.2072895,0.01601326 8.7185884,-4.0017078 c -1.7454984,2.3720609 -1.7354408,5.6174519 -6e-7,8.035443 z"
        
         transform="scale(0.6,0.6)"
         id="path3800"
         style="font-size:12px;fill-rule:evenodd;stroke-width:0.625;stroke-linejoin:round" />
    </svg:marker>
    <svg:marker
       refX="0"
       refY="0"
       orient="auto"
       id="Arrow1Sstart"
       style="overflow:visible">
      <svg:path
         d="M 0,0 5,-5 -12.5,0 5,5 0,0 z"
        
         transform="matrix(0.2,0,0,0.2,1.2,0)"
         id="path3788"
         style="fill-rule:evenodd;stroke:#000000;stroke-width:1pt;marker-start:none" />
    </svg:marker>
    <svg:marker
       refX="0"
       refY="0"
       orient="auto"
       id="Arrow1Lstart"
       style="overflow:visible">
      <svg:path
         d="M 0,0 5,-5 -12.5,0 5,5 0,0 z"
        
         transform="matrix(0.8,0,0,0.8,10,0)"
         id="path3776"
         style="fill-rule:evenodd;stroke:#000000;stroke-width:1pt;marker-start:none" />
    </svg:marker>
  </defs>
  <svg:g
     id="ww_05"
     style="fill:none;stroke:#000000;stroke-width:3">
    <svg:g
       transform="matrix(1.1897479,0,0,1.3759097,0.14110366,-0.81307608)"
       id="g5338"
       style="stroke-width:2.34476233;stroke-miterlimit:4;stroke-dasharray:none">
      <svg:path
         d="m 16.871166,13.665644 c 7.254601,9.447853 6.917178,9.616564 6.917178,9.616564 l 1.687116,20.414111"
        
         transform="translate(-27.5,-27.5)"
         id="path2999"
         style="fill:none;stroke:#000000;stroke-width:2.34476233;stroke-linecap:butt;stroke-linejoin:miter;stroke-miterlimit:4;stroke-opacity:1;stroke-dasharray:none" />
      <svg:path
         d="M 12.653374,-13.665644 C 5.3987732,-4.2177913 5.7361962,-4.0490803 5.7361962,-4.0490803 L 4.0490802,16.365031"
        
         id="path3001"
         style="fill:none;stroke:#000000;stroke-width:2.34476233;stroke-linecap:butt;stroke-linejoin:miter;stroke-miterlimit:4;stroke-opacity:1;stroke-dasharray:none" />
      <svg:path
         d="m 39.071916,28.528878 a 12.569018,5.7361965 0 1 1 1.045623,-6.008935"
         transform="matrix(1.1593743,0,0,1.0465497,-32.21546,-27.996082)"
         id="path3003"
         style="fill:none;stroke:#000000;stroke-width:2.34476233;stroke-miterlimit:4;stroke-opacity:1;stroke-dasharray:none;marker-start:url(#Arrow2Sstart)" />
    </svg:g>
  </svg:g>
</svg>
