<?xml version="1.0" encoding="UTF-8" standalone="no"?>
<!-- Created with Inkscape (http://www.inkscape.org/) -->

<svg
   xmlns:dc="http://purl.org/dc/elements/1.1/"
   xmlns:cc="http://creativecommons.org/ns#"
   xmlns:rdf="http://www.w3.org/1999/02/22-rdf-syntax-ns#"
   xmlns:svg="http://www.w3.org/2000/svg"
   xmlns="http://www.w3.org/2000/svg"
   version="1.1"
   width="55"
   height="55"
   viewBox="-27.5 -27.5 55 55"
   id="svg3001">
  <desc
     id="en">
	Codes 20-29 General Group: Precipitation, fog, ice fog, or thunderstorm at the station during the preceeding hour but not at the time of observation.
	Code: 20
	Description: Drizzle (not freezing) or snow grains not falling as shower(s) ended in the past hour
</desc>
  <metadata
     id="metadata3015">
    <rdf:RDF>
      <cc:Work
         rdf:about="">
        <dc:format>image/svg+xml</dc:format>
        <dc:type
           rdf:resource="http://purl.org/dc/dcmitype/StillImage" />
        <dc:title />
      </cc:Work>
    </rdf:RDF>
  </metadata>
  <defs
     id="defs3013" />
  <g
     id="ww_20">
    <path
       d="M 20.273673,28.195052 A 6.5254235,6.5254235 0 1 1 20.093863,15.148509"
       transform="matrix(0.02446142,1.5695526,-1.4759805,0.00607693,44.449181,-26.335524)"
       id="path4607"
       style="fill:none;stroke:#000000;stroke-width:1.92334259;stroke-miterlimit:4;stroke-opacity:1;stroke-dasharray:none" />
    <path
       d="M 20.112997,28.19877 A 6.5254235,6.5254235 0 1 1 20.093863,15.148509"
       transform="matrix(0.02446142,1.5695526,-1.4759805,0.00607693,19.148259,-26.07737)"
       id="path4607-1"
       style="fill:none;stroke:#000000;stroke-width:1.92334259;stroke-miterlimit:4;stroke-opacity:1;stroke-dasharray:none" />
    <path
       d="M 20.112997,28.19877 A 6.5254235,6.5254235 0 1 1 20.093863,15.148509"
       transform="matrix(0.02446142,1.5695526,-1.4759805,0.00607693,31.966055,-40.759573)"
       id="path4607-1-7"
       style="fill:none;stroke:#000000;stroke-width:1.92334259;stroke-miterlimit:4;stroke-opacity:1;stroke-dasharray:none" />
    <path
       d="M 20.112997,28.19877 A 6.5254235,6.5254235 0 1 1 20.093863,15.148509"
       transform="matrix(0.02446142,1.5695526,-1.4759805,0.00607693,31.033852,-11.395166)"
       id="path4607-1-4"
       style="fill:none;stroke:#000000;stroke-width:1.92334259;stroke-miterlimit:4;stroke-opacity:1;stroke-dasharray:none" />
  </g>
</svg>
