<?xml version="1.0" encoding="UTF-8" standalone="no"?>
<!-- Created with Inkscape (http://www.inkscape.org/) -->

<svg
   xmlns:dc="http://purl.org/dc/elements/1.1/"
   xmlns:cc="http://creativecommons.org/ns#"
   xmlns:rdf="http://www.w3.org/1999/02/22-rdf-syntax-ns#"
   xmlns:svg="http://www.w3.org/2000/svg"
   xmlns="http://www.w3.org/2000/svg"
   xmlns:xlink="http://www.w3.org/1999/xlink"
   version="1.1"
   width="55"
   height="55"
   viewBox="-27.5 -27.5 55 55"
   id="svg3003">
  <desc
     id="en">
	Codes 80-99 General Group: Showery precipitation, or precipitation with current or recent thunderstorm.
	Code: 97
	Description: Thunderstorm, heavy, without hail but with rain and or snow at time of observation
</desc>
  <metadata
     id="metadata3019">
    <rdf:RDF>
      <cc:Work
         rdf:about="">
        <dc:format>image/svg+xml</dc:format>
        <dc:type
           rdf:resource="http://purl.org/dc/dcmitype/StillImage" />
        <dc:title></dc:title>
      </cc:Work>
    </rdf:RDF>
  </metadata>
  <defs
     id="defs3017">
    <marker
       refX="0"
       refY="0"
       orient="auto"
       id="TriangleOutS"
       style="overflow:visible">
      <path
         d="m 5.77,0 -8.65,5 0,-10 8.65,5 z"
         transform="scale(0.2,0.2)"
         id="path4022"
         style="fill-rule:evenodd;stroke:#000000;stroke-width:1pt;marker-start:none" />
    </marker>
  </defs>
  <g
     transform="translate(0.17460318,-0.17460318)"
     id="g4325">
    <g
       transform="matrix(1,0,0,0.98821227,-0.17460318,3.745036)"
       id="ww_97">
      <path
         d="M -6.5,-10 -6.6746032,16.109804"
         id="path3011"
         style="fill:none;stroke:#000000;stroke-width:2.92754865" />
    </g>
    <g
       transform="translate(0,3.6666667)"
       id="g4316">
      <circle
         cx="0"
         cy="-19"
         r="4.5"
         transform="matrix(0.80599647,0,0,0.75815227,-7.15873,-5.159612)"
         id="circle3007"
         style="fill:#000000" />
      <path
         d="m -10.5,-10 20,0 L 0.95238092,-1.3548015 8.5,6.8951315 1.6507936,13.378206"
         transform="matrix(1,0,0,0.98821227,0,-0.270837)"
         id="path3009"
         style="fill:none;stroke:#000000;stroke-width:2.82771564;stroke-miterlimit:4;stroke-dasharray:none;marker-end:url(#TriangleOutS)" />
      <g
         transform="matrix(0.6245511,0,0,0.66633805,8.1190471,-19.119047)"
         id="g3014">
        <path
           d="m -5.5,0 h 11"
           id="ww70arm"
           style="stroke:#000000;stroke-width:3;stroke-linecap:round" />
        <use
           transform="matrix(0.5,0.8660254,-0.8660254,0.5,0,0)"
           id="use3017"
           x="0"
           y="0"
           width="55"
           height="55"
           xlink:href="#ww70arm" />
        <use
           transform="matrix(-0.5,0.8660254,-0.8660254,-0.5,0,0)"
           id="use3019"
           x="0"
           y="0"
           width="55"
           height="55"
           xlink:href="#ww70arm" />
      </g>
      <path
         d="m -2.5273569,-14.869939 c 5.578523,-8.847425 5.578523,-8.847425 5.578523,-8.847425"
         id="path3042"
         style="fill:none;stroke:#000000;stroke-width:1.61772931;stroke-linecap:butt;stroke-linejoin:miter;stroke-miterlimit:4;stroke-opacity:1;stroke-dasharray:none" />
    </g>
  </g>
</svg>
