<?xml version="1.0" encoding="UTF-8" standalone="no"?>


<svg
   xmlns:dc="http://purl.org/dc/elements/1.1/"
   xmlns:cc="http://creativecommons.org/ns#"
   xmlns:rdf="http://www.w3.org/1999/02/22-rdf-syntax-ns#"
   xmlns:svg="http://www.w3.org/2000/svg"
   
   
   version="1.1"
   width="55"
   height="55"
   viewBox="-27.5 -27.5 55 55"
   id="svg2997">
  <svg:desc
     id="en">
	Codes 00-09 General Group: No precipitation, fog, duststorm, sandstorm, drifting or blowing snow at the station at the time of observation or, except for 09 during the preceeding hour.
	Code: 04
	Description: Visibility reduced by smoke
</svg:desc>
  <svg:metadata
     id="metadata3007">
    <rdf:RDF>
      <cc:Work
         rdf:about="">
        <dc:format>image/svg+xml</dc:format>
        <dc:type
           rdf:resource="http://purl.org/dc/dcmitype/StillImage" />
        <dc:title />
      </cc:Work>
    </rdf:RDF>
  </svg:metadata>
  <defs
     id="defs3005">
    <svg:marker
       refX="0"
       refY="0"
       orient="auto"
       id="Arrow1Send"
       style="overflow:visible">
      <svg:path
         d="M 0,0 5,-5 -12.5,0 5,5 0,0 z"
        
         transform="matrix(-0.2,0,0,-0.2,-1.2,0)"
         id="path4739"
         style="fill-rule:evenodd;stroke:#000000;stroke-width:1pt;marker-start:none" />
    </svg:marker>
    <svg:marker
       refX="0"
       refY="0"
       orient="auto"
       id="Arrow1Mend"
       style="overflow:visible">
      <svg:path
         d="M 0,0 5,-5 -12.5,0 5,5 0,0 z"
        
         transform="matrix(-0.4,0,0,-0.4,-4,0)"
         id="path4733"
         style="fill-rule:evenodd;stroke:#000000;stroke-width:1pt;marker-start:none" />
    </svg:marker>
    <svg:marker
       refX="0"
       refY="0"
       orient="auto"
       id="Arrow2Mend"
       style="overflow:visible">
      <svg:path
         d="M 8.7185878,4.0337352 -2.2072895,0.01601326 8.7185884,-4.0017078 c -1.7454984,2.3720609 -1.7354408,5.6174519 -6e-7,8.035443 z"
        
         transform="scale(-0.6,-0.6)"
         id="path4751"
         style="font-size:12px;fill-rule:evenodd;stroke-width:0.625;stroke-linejoin:round" />
    </svg:marker>
    <svg:marker
       refX="0"
       refY="0"
       orient="auto"
       id="TriangleOutM"
       style="overflow:visible">
      <svg:path
         d="m 5.77,0 -8.65,5 0,-10 8.65,5 z"
        
         transform="scale(0.4,0.4)"
         id="path4870"
         style="fill-rule:evenodd;stroke:#000000;stroke-width:1pt;marker-start:none" />
    </svg:marker>
    <svg:marker
       refX="0"
       refY="0"
       orient="auto"
       id="TriangleOutS"
       style="overflow:visible">
      <svg:path
         d="m 5.77,0 -8.65,5 0,-10 8.65,5 z"
        
         transform="scale(0.2,0.2)"
         id="path3929"
         style="fill-rule:evenodd;stroke:#000000;stroke-width:1pt;marker-start:none" />
    </svg:marker>
    <svg:marker
       refX="0"
       refY="0"
       orient="auto"
       id="TriangleOutS-1"
       style="overflow:visible">
      <svg:path
         d="m 5.77,0 -8.65,5 0,-10 8.65,5 z"
        
         transform="scale(0.2,0.2)"
         id="path3929-7"
         style="fill-rule:evenodd;stroke:#000000;stroke-width:1pt;marker-start:none" />
    </svg:marker>
    <svg:marker
       refX="0"
       refY="0"
       orient="auto"
       id="TriangleOutS-17"
       style="overflow:visible">
      <svg:path
         d="m 5.77,0 -8.65,5 0,-10 8.65,5 z"
        
         transform="scale(0.2,0.2)"
         id="path3929-4"
         style="fill-rule:evenodd;stroke:#000000;stroke-width:1pt;marker-start:none" />
    </svg:marker>
  </defs>
  <svg:g
     id="g4193">
    <svg:g
       transform="matrix(0,-0.84029719,0.82138939,0,-0.05699488,-0.84194721)"
       id="g4197">
      <svg:g
         transform="matrix(0.74128152,-0.68664465,0.65609148,0.74128152,-1.7964149,-2.2375307)"
         id="g4110">
        <svg:g
           transform="translate(1.8367914,-0.51650708)"
           id="g4117">
          <svg:g
             transform="translate(0.66004949,0.81302863)"
             id="g4114">
            <svg:path
               d="m -3.5890733,-25.918913 c -0.01992,1.642571 -0.265747,2.839751 0.75163,4.104884 1.017376,1.265134 2.58247395,2.213928 2.66868095,4.18279 0.0862,1.968863 -0.763937,3.903768 -2.92961495,3.938785 -2.165677,0.03501 -3.446419,1.359096 -3.593824,3.439806 -0.147404,2.0807097 1.789913,3.5837777 3.396487,3.5740927 1.606574,-0.0097 3.02961695,1.809582 3.07721195,3.6380494 0.04759,1.8284665 -1.37261995,3.3227943 -3.05804295,3.2581343 -1.685424,-0.064659 -3.421898,1.7291373 -3.437779,3.6499741 -0.01588,1.9208357 1.562266,3.289295 3.340025,3.2631795 1.777758,-0.026114 3.24735695,1.4533217 3.34002395,3.263181 0.09267,1.809859 -1.37041295,3.468328 -3.38131495,3.59221 -2.010902,0.12388 -3.288424,1.988103 -3.259272,4.183888 0.02915,2.195784 2.143026,2.953593 3.292754,3.17794 1.741823,0.339884 1.335097,2.945536 1.278634,4.789969"
              
               id="path3961"
               style="fill:none;stroke:#000000;stroke-width:2.20782018;marker-end:url(#TriangleOutS)" />
          </svg:g>
          <svg:path
             d="m -29.279586,2.0619969 c 1.605698,0.011149 2.777303,0.2559043 4.008233,-0.7919833 1.230931,-1.04788722 2.149567,-2.6543178 4.073613,-2.7535703 1.924046,-0.099245 3.82016,0.75957589 3.866556,2.9748744 0.04639,2.2152976 1.347859,3.5180611 3.382545,3.6571664 2.034688,0.1391038 3.493027,-1.8512226 3.474534,-3.4946986 -0.01851,-1.64347589 1.7518121,-3.1094749 3.5388409,-3.1684382 1.787028,-0.058958 3.255688,1.38552467 3.2019537,3.1100809 -0.053733,1.7245573 1.7094291,3.490897 3.58710415,3.4963508 C 1.7314677,5.097229 3.0602463,3.4750948 3.0247304,1.6565885 2.9892154,-0.16191673 4.4270821,-1.6736331 6.195669,-1.7786008 c 1.7685854,-0.1049705 3.3979323,1.38244909 3.5303233,3.4389121 0.132389,2.0564631 1.9618137,3.3528978 4.1079937,3.3107379 2.146178,-0.042158 2.875047,-2.2089175 3.087882,-3.3863533 0.322444,-1.78379997 2.871711,-1.38235829 4.67493,-1.33495961"
            
             id="path4108"
             style="fill:none;stroke:#000000;stroke-width:2.20782018;marker-end:url(#TriangleOutS)" />
        </svg:g>
      </svg:g>
    </svg:g>
  </svg:g>
</svg>
