<?xml version="1.0" encoding="UTF-8" standalone="no"?>
<svg
   xmlns:dc="http://purl.org/dc/elements/1.1/"
   xmlns:cc="http://creativecommons.org/ns#"
   xmlns:rdf="http://www.w3.org/1999/02/22-rdf-syntax-ns#"
   xmlns:svg="http://www.w3.org/2000/svg"
   xmlns="http://www.w3.org/2000/svg"
   xmlns:sodipodi="http://sodipodi.sourceforge.net/DTD/sodipodi-0.dtd"
   xmlns:inkscape="http://www.inkscape.org/namespaces/inkscape"
   version="1.1"
   width="55"
   height="55"
   viewBox="-27.5 -27.5 55 55"
   id="svg2997"
   inkscape:version="0.48.2 r9819"
   sodipodi:docname="WeatherSymbol_WMO_DirectionOfwell_dw1dw1_00.svg">
  <metadata
     id="metadata3007">
    <rdf:RDF>
      <cc:Work
         rdf:about="">
        <dc:format>image/svg+xml</dc:format>
        <dc:type
           rdf:resource="http://purl.org/dc/dcmitype/StillImage" />
        <dc:title></dc:title>
      </cc:Work>
    </rdf:RDF>
  </metadata>
  <defs
     id="defs3005">
    <marker
       inkscape:stockid="Arrow1Send"
       orient="auto"
       refY="0.0"
       refX="0.0"
       id="Arrow1Send"
       style="overflow:visible;">
      <path
         id="path4739"
         d="M 0.0,0.0 L 5.0,-5.0 L -12.5,0.0 L 5.0,5.0 L 0.0,0.0 z "
         style="fill-rule:evenodd;stroke:#000000;stroke-width:1.0pt;marker-start:none;"
         transform="scale(0.2) rotate(180) translate(6,0)" />
    </marker>
    <marker
       inkscape:stockid="Arrow1Mend"
       orient="auto"
       refY="0.0"
       refX="0.0"
       id="Arrow1Mend"
       style="overflow:visible;">
      <path
         id="path4733"
         d="M 0.0,0.0 L 5.0,-5.0 L -12.5,0.0 L 5.0,5.0 L 0.0,0.0 z "
         style="fill-rule:evenodd;stroke:#000000;stroke-width:1.0pt;marker-start:none;"
         transform="scale(0.4) rotate(180) translate(10,0)" />
    </marker>
    <marker
       inkscape:stockid="Arrow2Mend"
       orient="auto"
       refY="0.0"
       refX="0.0"
       id="Arrow2Mend"
       style="overflow:visible;">
      <path
         id="path4751"
         style="font-size:12.0;fill-rule:evenodd;stroke-width:0.62500000;stroke-linejoin:round;"
         d="M 8.7185878,4.0337352 L -2.2072895,0.016013256 L 8.7185884,-4.0017078 C 6.9730900,-1.6296469 6.9831476,1.6157441 8.7185878,4.0337352 z "
         transform="scale(0.6) rotate(180) translate(0,0)" />
    </marker>
    <marker
       inkscape:stockid="TriangleOutM"
       orient="auto"
       refY="0.0"
       refX="0.0"
       id="TriangleOutM"
       style="overflow:visible">
      <path
         id="path4870"
         d="M 5.77,0.0 L -2.88,5.0 L -2.88,-5.0 L 5.77,0.0 z "
         style="fill-rule:evenodd;stroke:#000000;stroke-width:1.0pt;marker-start:none"
         transform="scale(0.4)" />
    </marker>
    <marker
       inkscape:stockid="TriangleOutS"
       orient="auto"
       refY="0.0"
       refX="0.0"
       id="TriangleOutS"
       style="overflow:visible">
      <path
         id="path3929"
         d="M 5.77,0.0 L -2.88,5.0 L -2.88,-5.0 L 5.77,0.0 z "
         style="fill-rule:evenodd;stroke:#000000;stroke-width:1.0pt;marker-start:none"
         transform="scale(0.2)" />
    </marker>
    <marker
       inkscape:stockid="TriangleOutS"
       orient="auto"
       refY="0"
       refX="0"
       id="TriangleOutS-1"
       style="overflow:visible">
      <path
         inkscape:connector-curvature="0"
         id="path3929-7"
         d="m 5.77,0 -8.65,5 0,-10 8.65,5 z"
         style="fill-rule:evenodd;stroke:#000000;stroke-width:1pt;marker-start:none"
         transform="scale(0.2,0.2)" />
    </marker>
    <marker
       inkscape:stockid="TriangleOutS"
       orient="auto"
       refY="0"
       refX="0"
       id="TriangleOutS-17"
       style="overflow:visible">
      <path
         inkscape:connector-curvature="0"
         id="path3929-4"
         d="m 5.77,0 -8.65,5 0,-10 8.65,5 z"
         style="fill-rule:evenodd;stroke:#000000;stroke-width:1pt;marker-start:none"
         transform="scale(0.2,0.2)" />
    </marker>
  </defs>
  <sodipodi:namedview
     pagecolor="#ffffff"
     bordercolor="#666666"
     borderopacity="1"
     objecttolerance="10"
     gridtolerance="10"
     guidetolerance="10"
     inkscape:pageopacity="0"
     inkscape:pageshadow="2"
     inkscape:window-width="1160"
     inkscape:window-height="670"
     id="namedview3003"
     showgrid="false"
     inkscape:zoom="8.1454545"
     inkscape:cx="27.5"
     inkscape:cy="22.885881"
     inkscape:window-x="103"
     inkscape:window-y="4"
     inkscape:window-maximized="0"
     inkscape:current-layer="g4110" />
  <desc
     id="en">
	Codes 00-09 General Group: No precipitation, fog, duststorm, sandstorm, drifting or blowing snow at the station at the time of observation or, except for 09 during the preceeding hour.
	Code: 04
	Description: Visibility reduced by smoke
</desc>
  <g
     id="g4193">
    <g
       id="g4197"
       transform="matrix(0,-0.84029719,0.82138939,0,-0.05699488,-0.84194721)">
      <g
         id="g4110"
         transform="matrix(0.74128152,-0.68664465,0.65609148,0.74128152,-1.7964149,-2.2375307)">
        <g
           id="g4117"
           transform="translate(1.8367914,-0.51650708)">
          <g
             transform="translate(0.66004949,0.81302863)"
             id="g4114">
            <path
               d="m -3.5890733,-25.918913 c -0.01992,1.642571 -0.265747,2.839751 0.75163,4.104884 1.017376,1.265134 2.58247395,2.213928 2.66868095,4.18279 0.0862,1.968863 -0.763937,3.903768 -2.92961495,3.938785 -2.165677,0.03501 -3.446419,1.359096 -3.593824,3.439806 -0.147404,2.0807097 1.789913,3.5837777 3.396487,3.5740927 1.606574,-0.0097 3.02961695,1.809582 3.07721195,3.6380494 0.04759,1.8284665 -1.37261995,3.3227943 -3.05804295,3.2581343 -1.685424,-0.064659 -3.421898,1.7291373 -3.437779,3.6499741 -0.01588,1.9208357 1.562266,3.289295 3.340025,3.2631795 1.777758,-0.026114 3.24735695,1.4533217 3.34002395,3.263181 0.09267,1.809859 -1.37041295,3.468328 -3.38131495,3.59221 -2.010902,0.12388 -3.288424,1.988103 -3.259272,4.183888 0.02915,2.195784 2.143026,2.953593 3.292754,3.17794 1.741823,0.339884 1.335097,2.945536 1.278634,4.789969"
               id="path3961"
               inkscape:connector-curvature="0"
               sodipodi:nodetypes="czzzzzzzzzzzzsc"
               style="fill:none;stroke:#000000;stroke-width:2.20782018000000010;marker-end:none" />
          </g>
          <path
             d="m -29.279586,2.0619969 c 1.605698,0.011149 2.777303,0.2559043 4.008233,-0.7919833 1.230931,-1.04788722 2.149567,-2.6543178 4.073613,-2.7535703 1.924046,-0.099245 3.82016,0.75957589 3.866556,2.9748744 0.04639,2.2152976 1.347859,3.5180611 3.382545,3.6571664 2.034688,0.1391038 3.493027,-1.8512226 3.474534,-3.4946986 -0.01851,-1.64347589 1.7518121,-3.1094749 3.5388409,-3.1684382 1.787028,-0.058958 3.255688,1.38552467 3.2019537,3.1100809 -0.053733,1.7245573 1.7094291,3.490897 3.58710415,3.4963508 C 1.7314677,5.097229 3.0602463,3.4750948 3.0247304,1.6565885 2.9892154,-0.16191673 4.4270821,-1.6736331 6.195669,-1.7786008 c 1.7685854,-0.1049705 3.3979323,1.38244909 3.5303233,3.4389121 0.132389,2.0564631 1.9618137,3.3528978 4.1079937,3.3107379 2.146178,-0.042158 2.875047,-2.2089175 3.087882,-3.3863533 0.322444,-1.78379997 2.871711,-1.38235829 4.67493,-1.33495961"
             id="path4108"
             inkscape:connector-curvature="0"
             sodipodi:nodetypes="czzzzzzzzzzzzsc"
             style="fill:none;stroke:#000000;stroke-width:2.20782018000000010;marker-end:none" />
        </g>
      </g>
    </g>
  </g>
</svg>
