<?xml version="1.0" encoding="UTF-8" standalone="no"?>
<!-- Created with Inkscape (http://www.inkscape.org/) -->

<svg
   xmlns:dc="http://purl.org/dc/elements/1.1/"
   xmlns:cc="http://creativecommons.org/ns#"
   xmlns:rdf="http://www.w3.org/1999/02/22-rdf-syntax-ns#"
   xmlns:svg="http://www.w3.org/2000/svg"
   xmlns="http://www.w3.org/2000/svg"
   xmlns:inkscape="http://www.inkscape.org/namespaces/inkscape"
   version="1.1"
   width="55"
   height="55"
   viewBox="-27.5 -27.5 55 55"
   id="svg2997">
  <desc
     id="en">
	Codes 00-09 General Group: No precipitation, fog, duststorm, sandstorm, drifting or blowing snow at the station at the time of observation or, except for 09 during the preceeding hour.
	Code: 04
	Description: Visibility reduced by smoke
</desc>
  <metadata
     id="metadata3007">
    <rdf:RDF>
      <cc:Work
         rdf:about="">
        <dc:format>image/svg+xml</dc:format>
        <dc:type
           rdf:resource="http://purl.org/dc/dcmitype/StillImage" />
        <dc:title />
      </cc:Work>
    </rdf:RDF>
  </metadata>
  <defs
     id="defs3005">
    <marker
       refX="0"
       refY="0"
       orient="auto"
       id="TriangleOutS"
       style="overflow:visible">
      <path
         d="m 5.77,0 -8.65,5 0,-10 8.65,5 z"
         inkscape:connector-curvature="0"
         transform="scale(0.2,0.2)"
         id="path3929"
         style="fill-rule:evenodd;stroke:#000000;stroke-width:1pt;marker-start:none" />
    </marker>
  </defs>
  <g
     transform="matrix(0.99843844,-0.05586302,0.05586302,0.99843844,0.65232991,21.684395)"
     id="ww_04"
     style="fill:none;stroke:#000000;stroke-width:3">
    <path
       d="m -23.297684,-18.31644 c 1.346149,0.09208 2.316424,0.353261 3.401726,-0.442252 1.085302,-0.795513 1.936882,-2.065071 3.555606,-2.047055 1.618724,0.01802 3.165646,0.820057 3.092704,2.638635 -0.07294,1.818578 0.952823,2.953857 2.652308,3.173001 1.6994855,0.219144 3.023102,-1.337267 3.0905739,-2.685603 0.067472,-1.348336 1.6262656,-2.45877 3.128038,-2.414802 1.5017724,0.04397 2.6606128,1.304075 2.5284691,2.715153 -0.1321437,1.411078 1.25744816,2.950263 2.8319931,3.051725 1.5745449,0.101462 2.7709081,-1.159788 2.832942,-2.652499 0.062034,-1.492711 1.3443142,-2.657798 2.8329417,-2.652498 1.4886275,0.0053 2.7800706,1.308901 2.7872722,3.001702 0.0072,1.692801 1.476093,2.850163 3.278239,2.926459 1.802146,0.0763 2.522858,-1.66244 2.760818,-2.61675 0.360505,-1.445768 2.478325,-0.98497 3.988306,-0.852966"
       inkscape:connector-curvature="0"
       id="path3961"
       style="stroke-width:1.83423376;marker-end:url(#TriangleOutS)" />
  </g>
</svg>
