<?xml version="1.0" encoding="UTF-8" standalone="no"?>
<!-- Created with Inkscape (http://www.inkscape.org/) -->

<svg
   xmlns:dc="http://purl.org/dc/elements/1.1/"
   xmlns:cc="http://creativecommons.org/ns#"
   xmlns:rdf="http://www.w3.org/1999/02/22-rdf-syntax-ns#"
   xmlns:svg="http://www.w3.org/2000/svg"
   xmlns="http://www.w3.org/2000/svg"
   version="1.1"
   width="165"
   height="55"
   viewBox="-48 -33 41.25 13.75"
   id="svg3026">
  <desc
     id="en">Observed wind speed: 58–62 knots</desc>
  <metadata
     id="metadata3041">
    <rdf:RDF>
      <cc:Work
         rdf:about="">
        <dc:format>image/svg+xml</dc:format>
        <dc:type
           rdf:resource="http://purl.org/dc/dcmitype/StillImage" />
        <dc:title></dc:title>
      </cc:Work>
    </rdf:RDF>
  </metadata>
  <defs
     id="defs3039" />
  <g
     transform="matrix(0.83187211,0,0,0.62088541,-7.8895108,1.1261761)"
     id="g2994">
    <g
       transform="matrix(0.92572203,0,0,1,11.869097,-36.038136)"
       id="g3113">
      <path
         d="m -44,1 0,-1 5,-17.25 5,17.25 0,1"
         id="path3029"
         style="fill:#000000;stroke:none" />
      <g
         id="g3105">
        <g
           id="g3031"
           style="fill:none;stroke:#000000;stroke-width:2">
          <path
             d="M -11.168281,0 H -40"
             id="path3033"
             style="stroke-width:1.69799054" />
          <path
             d="m -30.540119,0 -5,-17"
             id="path3035" />
        </g>
        <g
           transform="translate(-18.661017,-0.08686439)"
           id="g3065"
           style="fill:#000000;stroke:none">
          <path
             d="m -43,1 0,-1 5,-17.25 5,17.25 0,1"
             id="path3067" />
          <path
             d="m -34,1 0,-1 5,-17.25 5,17.25 0,1"
             id="path3069" />
        </g>
      </g>
    </g>
    <path
       d="m -12.304339,-35.961864 -4.62861,-17"
       id="path3035-1"
       style="fill:none;stroke:#000000;stroke-width:1.92428899" />
    <path
       d="m -8.1483051,-36.288136 -2.4999999,-8.5"
       id="path3211"
       style="fill:none;stroke:#000000;stroke-width:2" />
  </g>
</svg>
