<?xml version="1.0" encoding="UTF-8" standalone="no"?>
<!-- Created with Inkscape (http://www.inkscape.org/) -->

<svg
   xmlns:dc="http://purl.org/dc/elements/1.1/"
   xmlns:cc="http://creativecommons.org/ns#"
   xmlns:rdf="http://www.w3.org/1999/02/22-rdf-syntax-ns#"
   xmlns:svg="http://www.w3.org/2000/svg"
   xmlns="http://www.w3.org/2000/svg"
   version="1.1"
   width="165"
   height="55"
   viewBox="-48 -33 41.25 13.75"
   id="svg3026">
  <desc
     id="en">Observed wind speed: 102–107 knots</desc>
  <metadata
     id="metadata3045">
    <rdf:RDF>
      <cc:Work
         rdf:about="">
        <dc:format>image/svg+xml</dc:format>
        <dc:type
           rdf:resource="http://purl.org/dc/dcmitype/StillImage" />
        <dc:title></dc:title>
      </cc:Work>
    </rdf:RDF>
  </metadata>
  <defs
     id="defs3043" />
  <g
     transform="matrix(-0.61180587,0,0,0.58617341,-35.770702,0.0080302)"
     id="g2993">
    <g
       transform="translate(0,-36.25)"
       id="g3029"
       style="fill:#000000;stroke:none">
      <path
         d="m -43.07045,1.2587194 0,-1.00000004 5,-17.25000036 5,17.25000036 0,1.00000004"
         id="path3031" />
      <path
         d="m -34,1 0,-1 5,-17.25 5,17.25 0,1"
         id="path3033" />
    </g>
    <g
       transform="matrix(1.3625,0,0,1,14.5,-36.25)"
       id="g3035"
       style="fill:none;stroke:#000000;stroke-width:2">
      <path
         d="M 3.6697248,0 H -40"
         id="path3037"
         style="stroke-width:2.08973026" />
    </g>
    <path
       d="m -25.003694,-35.548729 0,-1 5,-17.249999 5,17.249999 0,1"
       id="path3033-9"
       style="fill:#000000;stroke:none" />
    <path
       d="m -15.5,-35.75 0,-1 5,-17.249998 5,17.249998 0,1"
       id="path3033-9-1"
       style="fill:#000000;stroke:none" />
    <path
       d="m -2.5,-36.75 -5,-17"
       id="path3022"
       style="fill:none;stroke:#000000;stroke-width:2" />
    <path
       d="m 1.5,-36.75 -5,-17"
       id="path3022-1"
       style="fill:none;stroke:#000000;stroke-width:2" />
    <path
       d="m 5.5,-36.75 -5,-17"
       id="path3022-7"
       style="fill:none;stroke:#000000;stroke-width:2" />
  </g>
</svg>
