<?xml version="1.0" encoding="UTF-8" standalone="no"?>
<!-- Created with Inkscape (http://www.inkscape.org/) -->

<svg
   xmlns:dc="http://purl.org/dc/elements/1.1/"
   xmlns:cc="http://creativecommons.org/ns#"
   xmlns:rdf="http://www.w3.org/1999/02/22-rdf-syntax-ns#"
   xmlns:svg="http://www.w3.org/2000/svg"
   xmlns="http://www.w3.org/2000/svg"
   version="1.1"
   width="300"
   height="200"
   viewBox="-48 -33 75 50"
   id="svg3026">
  <desc
     id="en">Observed wind speed: 102–107 knots</desc>
  <metadata
     id="metadata3045">
    <rdf:RDF>
      <cc:Work
         rdf:about="">
        <dc:format>image/svg+xml</dc:format>
        <dc:type
           rdf:resource="http://purl.org/dc/dcmitype/StillImage" />
        <dc:title></dc:title>
      </cc:Work>
    </rdf:RDF>
  </metadata>
  <defs
     id="defs3043" />
  <g
     transform="matrix(-1,0,0,1,-28.332738,0)"
     id="g2993">
    <g
       id="g3029"
       style="fill:#000000;stroke:none">
      <path
         d="m -44,1 0,-1 5,-17.25 5,17.25 0,1"
         id="path3031" />
      <path
         d="m -34,1 0,-1 5,-17.25 5,17.25 0,1"
         id="path3033" />
    </g>
    <g
       transform="matrix(1.3625,0,0,1,14.5,0)"
       id="g3035"
       style="fill:none;stroke:#000000;stroke-width:2">
      <path
         d="M 0,0 H -40"
         id="path3037" />
    </g>
    <path
       d="m -24.186441,0.70127123 0,-1 5,-17.24999923 5,17.24999923 0,1"
       id="path3033-9"
       style="fill:#000000;stroke:none" />
    <path
       d="m -15.5,0.5 0,-1 5,-17.249998 5,17.249998 0,1"
       id="path3033-9-1"
       style="fill:#000000;stroke:none" />
    <path
       d="M 5.5,-0.5 3,-9"
       id="path3024"
       style="fill:none;stroke:#000000;stroke-width:2" />
    <path
       d="m -2.5,-0.5 -5,-17"
       id="path3022"
       style="fill:none;stroke:#000000;stroke-width:2" />
    <path
       d="m 1.5,-0.5 -5,-17"
       id="path3022-1"
       style="fill:none;stroke:#000000;stroke-width:2" />
  </g>
</svg>
