<?xml version="1.0" encoding="UTF-8" standalone="no"?>


<svg
   xmlns:dc="http://purl.org/dc/elements/1.1/"
   xmlns:cc="http://creativecommons.org/ns#"
   xmlns:rdf="http://www.w3.org/1999/02/22-rdf-syntax-ns#"
   xmlns:svg="http://www.w3.org/2000/svg"
   
   
   version="1.1"
   width="165"
   height="55"
   viewBox="-48 -33 41.25 13.75"
   id="svg3026">
  <svg:desc
     id="en">Observed wind speed: 102–107 knots</svg:desc>
  <svg:metadata
     id="metadata3045">
    <rdf:RDF>
      <cc:Work
         rdf:about="">
        <dc:format>image/svg+xml</dc:format>
        <dc:type
           rdf:resource="http://purl.org/dc/dcmitype/StillImage" />
        <dc:title />
      </cc:Work>
    </rdf:RDF>
  </svg:metadata>
  <defs
     id="defs3043" />
  <svg:g
     transform="matrix(-0.6714657,0,0,0.60918121,-37.903466,0.83247711)"
     id="g2992">
    <svg:g
       transform="translate(0,-36.25)"
       id="g3029"
       style="fill:#000000;stroke:none">
      <svg:path
         d="m -43.217689,1.2572462 0,-0.99999998 5,-17.25000022 5,17.25000022 0,0.99999998"
        
         id="path3031" />
      <svg:path
         d="m -34,1 0,-1 5,-17.25 5,17.25 0,1"
        
         id="path3033" />
    </svg:g>
    <svg:g
       transform="matrix(1.3625,0,0,1,14.5,-36.25)"
       id="g3035"
       style="fill:none;stroke:#000000;stroke-width:2">
      <svg:path
         d="M 0,0 H -40"
        
         id="path3037" />
    </svg:g>
    <svg:path
       d="m -24.917643,-35.548729 0,-1 5,-17.249999 5,17.249999 0,1"
      
       id="path3033-9"
       style="fill:#000000;stroke:none" />
    <svg:path
       d="m -15.5,-35.75 0,-1 5,-17.249998 5,17.249998 0,1"
      
       id="path3033-9-1"
       style="fill:#000000;stroke:none" />
    <svg:path
       d="M 1.5,-36.75 -1,-45.25"
      
       id="path3024"
       style="fill:none;stroke:#000000;stroke-width:2" />
    <svg:path
       d="m -2.5,-36.75 -5,-17"
      
       id="path3022"
       style="fill:none;stroke:#000000;stroke-width:2" />
  </svg:g>
</svg>
