<?xml version="1.0" encoding="UTF-8" standalone="no"?>
<!-- Created with Inkscape (http://www.inkscape.org/) -->

<svg
   xmlns:dc="http://purl.org/dc/elements/1.1/"
   xmlns:cc="http://creativecommons.org/ns#"
   xmlns:rdf="http://www.w3.org/1999/02/22-rdf-syntax-ns#"
   xmlns:svg="http://www.w3.org/2000/svg"
   xmlns="http://www.w3.org/2000/svg"
   version="1.1"
   width="200"
   height="200"
   viewBox="-48 -33 50 50"
   id="svg3026">
  <desc
     id="en">Observed wind speed: 58–62 knots</desc>
  <metadata
     id="metadata3041">
    <rdf:RDF>
      <cc:Work
         rdf:about="">
        <dc:format>image/svg+xml</dc:format>
        <dc:type
           rdf:resource="http://purl.org/dc/dcmitype/StillImage" />
        <dc:title></dc:title>
      </cc:Work>
    </rdf:RDF>
  </metadata>
  <defs
     id="defs3039" />
  <g
     transform="matrix(-1,0,0,1,-42.864635,0)"
     id="g2994">
    <g
       transform="matrix(0.92572203,0,0,1,11.869097,0.21186441)"
       id="g3113">
      <path
         d="m -44,1 0,-1 5,-17.25 5,17.25 0,1"
         id="path3029"
         style="fill:#000000;stroke:none" />
      <g
         id="g3105">
        <g
           id="g3031"
           style="fill:none;stroke:#000000;stroke-width:2">
          <path
             d="M -11.168281,0 H -40"
             id="path3033"
             style="stroke-width:1.69799054" />
          <path
             d="m -30,0 -5,-17"
             id="path3035" />
        </g>
        <g
           transform="translate(-18.661017,-0.08686439)"
           id="g3065"
           style="fill:#000000;stroke:none">
          <path
             d="m -43,1 0,-1 5,-17.25 5,17.25 0,1"
             id="path3067" />
          <path
             d="m -34,1 0,-1 5,-17.25 5,17.25 0,1"
             id="path3069" />
        </g>
      </g>
    </g>
    <path
       d="M -11.304339,0.28813559 -15.932949,-16.711864"
       id="path3035-1"
       style="fill:none;stroke:#000000;stroke-width:1.92428899" />
    <path
       d="M -6.8721357,-0.13559372 -11.500746,-17.135593"
       id="path3035-1-7"
       style="fill:none;stroke:#000000;stroke-width:1.92428899" />
  </g>
</svg>
