<?xml version="1.0" encoding="UTF-8" standalone="no"?>


<svg
   xmlns:dc="http://purl.org/dc/elements/1.1/"
   xmlns:cc="http://creativecommons.org/ns#"
   xmlns:rdf="http://www.w3.org/1999/02/22-rdf-syntax-ns#"
   xmlns:svg="http://www.w3.org/2000/svg"
   
   
   version="1.1"
   width="165"
   height="55"
   viewBox="-48 -33 41.25 13.75"
   id="svg3026">
  <svg:desc
     id="en">Observed wind speed: 58–62 knots</svg:desc>
  <svg:metadata
     id="metadata3041">
    <rdf:RDF>
      <cc:Work
         rdf:about="">
        <dc:format>image/svg+xml</dc:format>
        <dc:type
           rdf:resource="http://purl.org/dc/dcmitype/StillImage" />
        <dc:title />
      </cc:Work>
    </rdf:RDF>
  </svg:metadata>
  <defs
     id="defs3039" />
  <svg:g
     transform="matrix(0.8295055,0,0,0.62089474,-7.9965096,1.1246851)"
     id="g2995">
    <svg:g
       transform="matrix(0.92572203,0,0,1,11.869097,-36.038136)"
       id="g3113">
      <svg:path
         d="m -44,1 0,-1 5,-17.25 5,17.25 0,1"
        
         id="path3029"
         style="fill:#000000;stroke:none" />
      <svg:g
         id="g3105">
        <svg:g
           id="g3031"
           style="fill:none;stroke:#000000;stroke-width:2">
          <svg:path
             d="M -11.168281,0 H -40"
            
             id="path3033"
             style="stroke-width:1.69799054" />
          <svg:path
             d="m -30.540119,0 -5,-17"
            
             id="path3035" />
        </svg:g>
        <svg:g
           transform="translate(-18.661017,-0.08686439)"
           id="g3065"
           style="fill:#000000;stroke:none">
          <svg:path
             d="m -43,1 0,-1 5,-17.25 5,17.25 0,1"
            
             id="path3067" />
          <svg:path
             d="m -34,1 0,-1 5,-17.25 5,17.25 0,1"
            
             id="path3069" />
        </svg:g>
      </svg:g>
    </svg:g>
    <svg:path
       d="m -12.304339,-35.961864 -4.62861,-17"
      
       id="path3035-1"
       style="fill:none;stroke:#000000;stroke-width:1.92428899" />
    <svg:path
       d="M -8.3721357,-36.385594 -13.000746,-53.385593"
      
       id="path3035-1-7"
       style="fill:none;stroke:#000000;stroke-width:1.92428899" />
    <svg:path
       d="m -4.3297628,-36.597458 -4.62861,-16.999999"
      
       id="path3035-1-7-4"
       style="fill:none;stroke:#000000;stroke-width:1.92428899" />
  </svg:g>
</svg>
