<?xml version="1.0" encoding="UTF-8" standalone="no"?>
<!-- Created with Inkscape (http://www.inkscape.org/) -->

<svg
   xmlns:dc="http://purl.org/dc/elements/1.1/"
   xmlns:cc="http://creativecommons.org/ns#"
   xmlns:rdf="http://www.w3.org/1999/02/22-rdf-syntax-ns#"
   xmlns:svg="http://www.w3.org/2000/svg"
   xmlns="http://www.w3.org/2000/svg"
   xmlns:inkscape="http://www.inkscape.org/namespaces/inkscape"
   version="1.1"
   width="165"
   height="55"
   viewBox="-48 -33 41.25 13.75"
   id="svg3026">
  <desc
     id="en">Observed wind speed: 102–107 knots</desc>
  <metadata
     id="metadata3045">
    <rdf:RDF>
      <cc:Work
         rdf:about="">
        <dc:format>image/svg+xml</dc:format>
        <dc:type
           rdf:resource="http://purl.org/dc/dcmitype/StillImage" />
        <dc:title />
      </cc:Work>
    </rdf:RDF>
  </metadata>
  <defs
     id="defs3043" />
  <g
     transform="matrix(0.67463078,0,0,0.60918121,-16.470813,0.84027948)"
     id="g2994">
    <g
       transform="translate(0,-36.25)"
       id="g3029"
       style="fill:#000000;stroke:none">
      <path
         d="m -43.02974,1.186711 0,-1.00000004 5,-17.24999996 5,17.24999996 0,1.00000004"
         inkscape:connector-curvature="0"
         id="path3031" />
      <path
         d="m -34,1 0,-1 5,-17.25 5,17.25 0,1"
         inkscape:connector-curvature="0"
         id="path3033" />
    </g>
    <g
       transform="matrix(1.3625,0,0,1,14.5,-36.25)"
       id="g3035"
       style="fill:none;stroke:#000000;stroke-width:2">
      <path
         d="M 0,0 H -40"
         inkscape:connector-curvature="0"
         id="path3037" />
    </g>
    <path
       d="m -24.939127,-35.548729 0,-1 5,-17.249999 5,17.249999 0,1"
       inkscape:connector-curvature="0"
       id="path3033-9"
       style="fill:#000000;stroke:none" />
    <path
       d="m -15.5,-35.75 0,-1 5,-17.249998 5,17.249998 0,1"
       inkscape:connector-curvature="0"
       id="path3033-9-1"
       style="fill:#000000;stroke:none" />
    <path
       d="M 9.5,-36.75 7,-45.25"
       inkscape:connector-curvature="0"
       id="path3024"
       style="fill:none;stroke:#000000;stroke-width:2" />
    <path
       d="m -2.5,-36.75 -5,-17"
       inkscape:connector-curvature="0"
       id="path3022"
       style="fill:none;stroke:#000000;stroke-width:2" />
    <path
       d="m 1.5,-36.75 -5,-17"
       inkscape:connector-curvature="0"
       id="path3022-1"
       style="fill:none;stroke:#000000;stroke-width:2" />
    <path
       d="m 5.5,-36.75 -5,-17"
       inkscape:connector-curvature="0"
       id="path3022-7"
       style="fill:none;stroke:#000000;stroke-width:2" />
  </g>
</svg>
