<?xml version="1.0" encoding="UTF-8" standalone="no"?>
<!-- Created with Inkscape (http://www.inkscape.org/) -->

<svg
   xmlns:dc="http://purl.org/dc/elements/1.1/"
   xmlns:cc="http://creativecommons.org/ns#"
   xmlns:rdf="http://www.w3.org/1999/02/22-rdf-syntax-ns#"
   xmlns:svg="http://www.w3.org/2000/svg"
   xmlns="http://www.w3.org/2000/svg"
   xmlns:inkscape="http://www.inkscape.org/namespaces/inkscape"
   version="1.1"
   width="440"
   height="55"
   viewBox="0 0 440 55"
   id="svg2">
  <desc
     id="desc4">Warm front – symbol</desc>
  <metadata
     id="metadata12">
    <rdf:RDF>
      <cc:Work
         rdf:about="">
        <dc:format>image/svg+xml</dc:format>
        <dc:type
           rdf:resource="http://purl.org/dc/dcmitype/StillImage" />
        <dc:title />
      </cc:Work>
    </rdf:RDF>
  </metadata>
  <defs
     id="defs10" />
  <path
     d="m 10,40 10,0 c 0,-6.544985 2.694327,-13.049667 7.322331,-17.677668 4.628003,-4.628 11.132685,-7.322321 17.677669,-7.322321 6.544984,0 13.049666,2.694321 17.677669,7.322321 C 67.305673,26.950333 70,33.455015 70,40 l 20,0 c 0,-6.544985 2.694327,-13.049667 7.322331,-17.677668 4.627999,-4.628 11.132689,-7.322321 17.677669,-7.322321 6.54498,0 13.04967,2.694321 17.67767,7.322321 C 137.30567,26.950333 140,33.455015 140,40 l 20,0 c 0,-6.544985 2.69433,-13.049667 7.32233,-17.677668 4.628,-4.628 11.13269,-7.322321 17.67767,-7.322321 6.54498,0 13.04967,2.694321 17.67767,7.322321 C 207.30567,26.950333 210,33.455015 210,40 l 20,0 c 0,-6.544985 2.69433,-13.049667 7.32233,-17.677668 4.628,-4.628 11.13269,-7.322321 17.67767,-7.322321 6.54498,0 13.04967,2.694321 17.67767,7.322321 C 277.30567,26.950333 280,33.455015 280,40 l 20,0 c 0,-6.544985 2.69433,-13.049667 7.32233,-17.677668 4.628,-4.628 11.13269,-7.322321 17.67767,-7.322321 6.54498,0 13.04967,2.694321 17.67767,7.322321 C 347.30567,26.950333 350,33.455015 350,40 l 20,0 c 0,-6.544985 2.69433,-13.049667 7.32233,-17.677668 4.628,-4.628 11.13269,-7.322321 17.67767,-7.322321 6.54498,0 13.04967,2.694321 17.67767,7.322321 C 417.30567,26.950333 420,33.455015 420,40 l 10,0 0,0.551471 -420,-0.808824 z"
     inkscape:connector-curvature="0"
     id="path6"
     style="fill:none;stroke:#000000;stroke-width:5;stroke-miterlimit:4;stroke-opacity:1;stroke-dasharray:none" />
</svg>
