<?xml version="1.0" encoding="UTF-8" standalone="no"?>


<svg
   xmlns:dc="http://purl.org/dc/elements/1.1/"
   xmlns:cc="http://creativecommons.org/ns#"
   xmlns:rdf="http://www.w3.org/1999/02/22-rdf-syntax-ns#"
   xmlns:svg="http://www.w3.org/2000/svg"
   
   
   version="1.1"
   width="440"
   height="55"
   viewBox="0 0 440 55"
   id="svg2">
  <svg:title
     id="title3988">Warm frontogenesis - Monochromatic</svg:title>
  <svg:desc
     id="desc4">Warm front – symbol</svg:desc>
  <svg:metadata
     id="metadata12">
    <rdf:RDF>
      <cc:Work
         rdf:about="">
        <dc:format>image/svg+xml</dc:format>
        <dc:type
           rdf:resource="http://purl.org/dc/dcmitype/StillImage" />
        <dc:title>Warm frontogenesis - Monochromatic</dc:title>
      </cc:Work>
    </rdf:RDF>
  </svg:metadata>
  <defs
     id="defs10" />
  <svg:g
     transform="translate(0.93517535,-3.0923395)"
     id="g3875"
     style="fill:#000000;fill-opacity:1">
    <svg:g
       transform="matrix(0.94390654,0,0,1,11.933872,0.46758767)"
       id="g3793"
       style="fill:#000000;fill-opacity:1">
      <svg:path
         d="m 408.67161,27.178534 a 14.261425,14.261425 0 1 1 -28.52285,-10e-7 l 14.26143,10e-7 z"
        
         transform="matrix(1.9186134,0,0,-1.9186134,-358.65798,98.849557)"
         id="path2984"
         style="fill:#000000;fill-opacity:1;stroke:#000000;stroke-width:2.60604882;stroke-linecap:butt;stroke-linejoin:miter;stroke-miterlimit:4;stroke-opacity:1;stroke-dasharray:none" />
      <svg:path
         d="m 408.67161,27.178534 a 14.261425,14.261425 0 1 1 -28.52285,-10e-7 l 14.26143,10e-7 z"
        
         transform="matrix(1.9186134,0,0,-1.9186134,-449.13589,98.849557)"
         id="path2984-1"
         style="fill:#000000;fill-opacity:1;stroke:#000000;stroke-width:2.60604882;stroke-linecap:butt;stroke-linejoin:miter;stroke-miterlimit:4;stroke-opacity:1;stroke-dasharray:none" />
      <svg:path
         d="m 408.67161,27.178534 a 14.261425,14.261425 0 1 1 -28.52285,-10e-7 l 14.26143,10e-7 z"
        
         transform="matrix(1.9186134,0,0,-1.9186134,-543.16473,98.849557)"
         id="path2984-7"
         style="fill:#000000;fill-opacity:1;stroke:#000000;stroke-width:2.60604882;stroke-linecap:butt;stroke-linejoin:miter;stroke-miterlimit:4;stroke-opacity:1;stroke-dasharray:none" />
      <svg:path
         d="m 408.67161,27.178534 a 14.261425,14.261425 0 1 1 -28.52285,-10e-7 l 14.26143,10e-7 z"
        
         transform="matrix(1.9186134,0,0,-1.9186134,-639.31244,98.849557)"
         id="path2984-4"
         style="fill:#000000;fill-opacity:1;stroke:#000000;stroke-width:2.60604882;stroke-linecap:butt;stroke-linejoin:miter;stroke-miterlimit:4;stroke-opacity:1;stroke-dasharray:none" />
      <svg:path
         d="m 408.67161,27.178534 a 14.261425,14.261425 0 1 1 -28.52285,-10e-7 l 14.26143,10e-7 z"
        
         transform="matrix(1.9186134,0,0,-1.9186134,-733.34129,98.849557)"
         id="path2984-0"
         style="fill:#000000;fill-opacity:1;stroke:#000000;stroke-width:2.60604882;stroke-linecap:butt;stroke-linejoin:miter;stroke-miterlimit:4;stroke-opacity:1;stroke-dasharray:none" />
    </svg:g>
    <svg:g
       transform="matrix(1.5,0,0,1.65,310.18065,30.118597)"
       id="g3768-63-14"
       style="fill:#000000;fill-opacity:1">
      <svg:g
         transform="translate(0,-5)"
         id="g3764-88-3"
         style="fill:#000000;fill-opacity:1">
        <svg:g
           id="g3761-2-2"
           style="fill:#000000;fill-opacity:1" />
      </svg:g>
    </svg:g>
  </svg:g>
  <svg:path
     d="m 81.596814,43.784315 a 2.2242645,2.2242645 0 0 1 -4.448529,0 2.2242645,2.2242645 0 1 1 4.448529,0 z"
    
     id="path3029"
     style="fill:#000000;fill-opacity:1;fill-rule:evenodd;stroke:#000000;stroke-width:1px;stroke-linecap:butt;stroke-linejoin:miter;stroke-opacity:1" />
  <svg:path
     d="m 172.18505,43.784314 a 2.224265,2.224265 0 0 1 -4.44853,0 2.224265,2.224265 0 1 1 4.44853,0 z"
    
     id="path3029-1"
     style="fill:#000000;fill-opacity:1;fill-rule:evenodd;stroke:#000000;stroke-width:1px;stroke-linecap:butt;stroke-linejoin:miter;stroke-opacity:1" />
  <svg:path
     d="m 261.91054,43.784314 a 2.224265,2.224265 0 0 1 -4.44853,0 2.224265,2.224265 0 1 1 4.44853,0 z"
    
     id="path3029-7"
     style="fill:#000000;fill-opacity:1;fill-rule:evenodd;stroke:#000000;stroke-width:1px;stroke-linecap:butt;stroke-linejoin:miter;stroke-opacity:1" />
  <svg:path
     d="m 348.18505,43.784314 a 2.224265,2.224265 0 0 1 -4.44853,0 2.224265,2.224265 0 1 1 4.44853,0 z"
    
     id="path3029-4"
     style="fill:#000000;fill-opacity:1;fill-rule:evenodd;stroke:#000000;stroke-width:1px;stroke-linecap:butt;stroke-linejoin:miter;stroke-opacity:1" />
  <svg:path
     d="m 431.87132,43.784314 a 2.224265,2.224265 0 0 1 -4.44853,0 2.224265,2.224265 0 1 1 4.44853,0 z"
    
     id="path3029-0"
     style="fill:#000000;fill-opacity:1;fill-rule:evenodd;stroke:#000000;stroke-width:1px;stroke-linecap:butt;stroke-linejoin:miter;stroke-opacity:1" />
</svg>
