<?xml version="1.0" encoding="UTF-8" standalone="no"?>


<svg
   xmlns:dc="http://purl.org/dc/elements/1.1/"
   xmlns:cc="http://creativecommons.org/ns#"
   xmlns:rdf="http://www.w3.org/1999/02/22-rdf-syntax-ns#"
   xmlns:svg="http://www.w3.org/2000/svg"
   
   
   version="1.1"
   width="55"
   height="55"
   viewBox="0 0 55 55"
   id="svg2997">
  <svg:desc
     id="desc2999">Cloud cover 0/8</svg:desc>
  <svg:metadata
     id="metadata3007">
    <rdf:RDF>
      <cc:Work
         rdf:about="">
        <dc:format>image/svg+xml</dc:format>
        <dc:type
           rdf:resource="http://purl.org/dc/dcmitype/StillImage" />
        <dc:title />
      </cc:Work>
    </rdf:RDF>
  </svg:metadata>
  <defs
     id="defs3005" />
  <svg:path
     d="m -115,26.7 c 0,-0.2 0,-0.4 0,-0.7"
    
     transform="translate(0,-9)"
     id="path3017"
     style="fill:none;stroke:#000000;stroke-width:1px;stroke-linecap:butt;stroke-linejoin:miter;stroke-opacity:1" />
  <svg:g
     transform="matrix(-0.945,0,0,0.945,58.3,-1.76)"
     id="g3815">
    <svg:circle
       cx="32"
       cy="32"
       r="28"
       id="circle3001"
       style="fill:#000000;fill-opacity:1;stroke:#000000;stroke-width:3" />
    <svg:path
       d="m -96,24.5 c 0.3,-27.81 25.9,-48 52.7,-47.4 1.7,0.1 3.4,0.2 5.2,0.4"
      
       transform="matrix(-1,0.023,-0.023,-1,-35.6,60.3)"
       id="path3811"
       style="fill:none;stroke:#000000;stroke-width:3;stroke-linecap:round;stroke-linejoin:miter;stroke-miterlimit:4;stroke-opacity:1;stroke-dasharray:none" />
    <svg:path
       d="m -96,24.5 c 0.3,-27.81 25.9,-48 52.7,-47.4 1.7,0.1 3.4,0.2 5.2,0.4"
      
       transform="matrix(1,-0.023,0.023,1,99.4,3.8)"
       id="path3813"
       style="fill:none;stroke:#000000;stroke-width:3;stroke-linecap:round;stroke-linejoin:miter;stroke-miterlimit:4;stroke-opacity:1;stroke-dasharray:none" />
  </svg:g>
</svg>
