<?xml version="1.0" encoding="UTF-8" standalone="no"?>
<!DOCTYPE svg PUBLIC "-//W3C//DTD SVG 1.1//EN" "http://www.w3.org/Graphics/SVG/1.1/DTD/svg11.dtd">
<svg xmlns="http://www.w3.org/2000/svg" version="1.1" width="440" height="95" viewBox="0 0 440 95">
<desc>Stationary front – symbol</desc>
	<path style="fill:red; stroke:none; stroke-width:0;" d="M10,45 h10 a25,25 0 0,1 50,0 h10 v5 h-70 v-5 z m140,0  h10 a25,25 0 0,1 50,0 h10 v5 h-70 v-5 z m140,0  h10 a25,25 0 0,1 50,0 h10 v5 h-70 v-5 z"/>
	<path style="fill:blue; stroke:none; stroke-width:0;" d="M80,45 v5 h10 l25,35 l25,-35 h10 v-5 h-70 z m140,0 v5 h10 l25,35 l25,-35 h10 v-5 h-70 z  m140,0 v5 h10 l25,35 l25,-35 h10 v-5 h-70 z"/>
</svg>
