<?xml version="1.0" encoding="UTF-8" standalone="no"?>
<svg
   xmlns:dc="http://purl.org/dc/elements/1.1/"
   xmlns:cc="http://creativecommons.org/ns#"
   xmlns:rdf="http://www.w3.org/1999/02/22-rdf-syntax-ns#"
   xmlns:svg="http://www.w3.org/2000/svg"
   xmlns="http://www.w3.org/2000/svg"
   xmlns:xlink="http://www.w3.org/1999/xlink"
   xmlns:sodipodi="http://sodipodi.sourceforge.net/DTD/sodipodi-0.dtd"
   xmlns:inkscape="http://www.inkscape.org/namespaces/inkscape"
   version="1.1"
   width="55"
   height="55"
   viewBox="-27.5 -27.5 55 55"
   id="svg3004"
   inkscape:version="0.48.2 r9819"
   sodipodi:docname="WeatherSymbol_WMO_PresentWeatherAdditional_w1w1_69.svg">
  <metadata
     id="metadata3021">
    <rdf:RDF>
      <cc:Work
         rdf:about="">
        <dc:format>image/svg+xml</dc:format>
        <dc:type
           rdf:resource="http://purl.org/dc/dcmitype/StillImage" />
        <dc:title />
      </cc:Work>
    </rdf:RDF>
  </metadata>
  <defs
     id="defs3019" />
  <sodipodi:namedview
     pagecolor="#ffffff"
     bordercolor="#666666"
     borderopacity="1"
     objecttolerance="10"
     gridtolerance="10"
     guidetolerance="10"
     inkscape:pageopacity="0"
     inkscape:pageshadow="2"
     inkscape:window-width="694"
     inkscape:window-height="596"
     id="namedview3017"
     showgrid="false"
     inkscape:zoom="4.2909091"
     inkscape:cx="65.487288"
     inkscape:cy="27.5"
     inkscape:window-x="452"
     inkscape:window-y="158"
     inkscape:window-maximized="0"
     inkscape:current-layer="svg3004" />
  <desc
     id="en">
	Codes 60-69 General Group: Rain.
	Code: 69
	Description: Rain or drizzle and snow, moderate or heavy
</desc>
  <g
     id="g3060">
    <g
       transform="translate(11.186441,0.46610169)"
       id="g3023">
      <g
         id="g3048">
        <g
           transform="translate(0,14)"
           id="ww_70">
          <path
             style="stroke:#000000;stroke-width:3;stroke-linecap:round"
             inkscape:connector-curvature="0"
             d="m 0,-5.5 v 11"
             id="ww70arm" />
          <use
             height="55"
             width="55"
             y="0"
             x="0"
             id="use3009"
             transform="matrix(0.5,0.8660254,-0.8660254,0.5,0,0)"
             xlink:href="#ww70arm" />
          <use
             height="55"
             width="55"
             y="0"
             x="0"
             id="use3011"
             transform="matrix(-0.5,0.8660254,-0.8660254,-0.5,0,0)"
             xlink:href="#ww70arm" />
        </g>
        <use
           height="55"
           width="55"
           x="0"
           id="use3013"
           y="-28"
           xlink:href="#ww_70" />
        <circle
           style="fill:#000000"
           sodipodi:ry="5.5"
           sodipodi:rx="5.5"
           sodipodi:cy="0"
           sodipodi:cx="0"
           cy="0"
           cx="0"
           d="M 5.5,0 C 5.5,3.0375661 3.0375661,5.5 0,5.5 -3.0375661,5.5 -5.5,3.0375661 -5.5,0 c 0,-3.0375661 2.4624339,-5.5 5.5,-5.5 3.0375661,0 5.5,2.4624339 5.5,5.5 z"
           id="circle3015"
           r="5.5" />
      </g>
    </g>
    <g
       id="g3019"
       transform="translate(-13.283898,-0.05084743)">
      <g
         id="ww_70-1"
         transform="translate(0,7)">
        <path
           id="ww70arm-7"
           d="m 0,-5.5 v 11"
           inkscape:connector-curvature="0"
           style="stroke:#000000;stroke-width:3;stroke-linecap:round" />
        <use
           xlink:href="#ww70arm-7"
           transform="matrix(0.5,0.8660254,-0.8660254,0.5,0,0)"
           id="use3007"
           x="0"
           y="0"
           width="744.09448"
           height="1052.3622" />
        <use
           xlink:href="#ww70arm-7"
           transform="matrix(-0.5,0.8660254,-0.8660254,-0.5,0,0)"
           id="use3009-4"
           x="0"
           y="0"
           width="744.09448"
           height="1052.3622" />
      </g>
      <circle
         r="5.5"
         cy="-7"
         id="circle3011"
         d="m 5.5,-7 c 0,3.0375661 -2.4624339,5.5 -5.5,5.5 -3.0375661,0 -5.5,-2.4624339 -5.5,-5.5 0,-3.037566 2.4624339,-5.5 5.5,-5.5 3.0375661,0 5.5,2.462434 5.5,5.5 z"
         cx="0"
         sodipodi:cx="0"
         sodipodi:cy="-7"
         sodipodi:rx="5.5"
         sodipodi:ry="5.5"
         style="fill:#000000" />
    </g>
    <path
       inkscape:connector-curvature="0"
       id="path3056"
       d="M -7.6906785,19.809322 C 5.1271185,-21.673729 5.1271185,-21.673729 5.1271185,-21.673729"
       style="fill:none;stroke:#000000;stroke-width:1.5;stroke-linecap:butt;stroke-linejoin:miter;stroke-opacity:1;stroke-miterlimit:4;stroke-dasharray:none" />
  </g>
</svg>
